<svg width="32" height="33" viewBox="0 0 32 33" fill="none" xmlns="http://www.w3.org/2000/svg">
<path fill-rule="evenodd" clip-rule="evenodd" d="M19 6.12181V10.1978C19 10.3458 19 10.5578 19.0267 10.7391C19.0509 10.9257 19.1168 11.1045 19.2195 11.2621C19.3222 11.4198 19.4591 11.5523 19.62 11.6498C19.7774 11.7386 19.9518 11.7931 20.1317 11.8096C20.3117 11.8261 20.4931 11.8044 20.664 11.7458C20.8373 11.6925 21.0267 11.6018 21.168 11.5338L22.6667 10.8218L24.1653 11.5338C24.3067 11.6005 24.496 11.6925 24.6693 11.7471C24.8404 11.8055 25.0218 11.8271 25.2018 11.8103C25.3817 11.7935 25.556 11.7388 25.7133 11.6498C25.874 11.5521 26.0106 11.4196 26.1131 11.2619C26.2156 11.1043 26.2813 10.9256 26.3053 10.7391C26.3333 10.5578 26.3333 10.3458 26.3333 10.1978V4.18981C26.4844 4.1827 26.632 4.17692 26.776 4.17248C28.2053 4.12181 29.3333 5.29515 29.3333 6.72581V21.6725C29.3333 23.1551 28.1253 24.3525 26.6467 24.4458C25.3533 24.5258 23.836 24.6845 22.6667 24.9925C21.224 25.3738 20.0133 26.4165 18.1693 26.9071C17.3347 27.1298 16.404 27.2498 16 27.3378V7.04715C16.4267 6.94181 17.8427 6.77648 18.232 6.55248C18.4782 6.40848 18.7342 6.26492 19 6.12181ZM26.304 17.2391C26.3359 17.3666 26.3424 17.4991 26.3231 17.6291C26.3038 17.7591 26.2591 17.884 26.1915 17.9967C26.1239 18.1094 26.0347 18.2076 25.9291 18.2858C25.8235 18.3641 25.7035 18.4207 25.576 18.4525L20.2427 19.7858C19.9852 19.8502 19.7128 19.8096 19.4852 19.6731C19.2577 19.5366 19.0937 19.3153 19.0293 19.0578C18.965 18.8004 19.0055 18.5279 19.142 18.3004C19.2786 18.0728 19.4999 17.9088 19.7573 17.8445L25.0907 16.5111C25.2181 16.4792 25.3507 16.4727 25.4806 16.492C25.6106 16.5113 25.7355 16.5561 25.8482 16.6237C25.9609 16.6913 26.0592 16.7804 26.1374 16.886C26.2156 16.9917 26.2722 17.1116 26.304 17.2391Z" fill="#794CFF"/>
<path d="M24.3333 4.34961C23.5067 4.44694 22.6933 4.58961 22 4.79761C21.6609 4.90092 21.3271 5.02107 21 5.15761V9.40028L22 8.92561L22.0107 8.91894C22.2128 8.81068 22.4375 8.75132 22.6667 8.74561C22.7298 8.74561 22.7911 8.75005 22.8507 8.75894C23.084 8.79761 23.2707 8.89228 23.3227 8.91894L23.3347 8.92561L24.3333 9.40028V4.34961Z" fill="#794CFF"/>
<path opacity="0.5" d="M16 7.10051C15.5546 7.01518 14.5906 6.88584 13.7093 6.64851C11.9173 6.16851 10.7333 5.16851 9.33329 4.79784C8.15063 4.48584 6.61196 4.32851 5.30929 4.24851C3.84796 4.15784 2.66663 5.34851 2.66663 6.81251L2.66663 21.6738C2.66663 23.1538 3.87463 24.3538 5.35329 24.4458C6.64663 24.5258 8.16396 24.6845 9.33329 24.9925C9.98129 25.1645 10.9546 25.5672 11.8306 25.9605C13.1706 26.5618 14.5666 27.0232 16 27.3392V7.10051Z" fill="#794CFF"/>
<path d="M5.69729 17.239C5.72924 17.1117 5.78596 16.9918 5.86423 16.8864C5.9425 16.7809 6.04077 16.6919 6.15344 16.6244C6.26611 16.5569 6.39097 16.5123 6.52089 16.4931C6.65081 16.4739 6.78324 16.4804 6.91062 16.5124L12.244 17.8457C12.5012 17.9103 12.7223 18.0743 12.8586 18.3019C12.9949 18.5294 13.0352 18.8018 12.9706 19.059C12.9061 19.3163 12.742 19.5374 12.5145 19.6737C12.2869 19.8099 12.0145 19.8503 11.7573 19.7857L6.42395 18.4524C6.29657 18.4204 6.17672 18.3637 6.07126 18.2854C5.9658 18.2072 5.87679 18.1089 5.80931 17.9962C5.74183 17.8836 5.69721 17.7587 5.67799 17.6288C5.65877 17.4989 5.66532 17.3664 5.69729 17.239ZM6.90929 11.179C6.78118 11.145 6.64759 11.1368 6.51627 11.1548C6.38496 11.1729 6.25854 11.2169 6.14438 11.2842C6.03021 11.3515 5.93058 11.4409 5.85126 11.5471C5.77194 11.6533 5.71453 11.7742 5.68236 11.9028C5.65019 12.0314 5.64391 12.1651 5.66388 12.2961C5.68384 12.4272 5.72966 12.5529 5.79866 12.6661C5.86767 12.7793 5.95849 12.8776 6.06583 12.9554C6.17318 13.0331 6.29491 13.0888 6.42395 13.119L11.7573 14.4524C12.013 14.5124 12.2821 14.4694 12.5064 14.3326C12.7307 14.1959 12.8921 13.9764 12.9559 13.7215C13.0197 13.4667 12.9806 13.197 12.8471 12.9708C12.7136 12.7445 12.4965 12.5798 12.2426 12.5124L6.90929 11.179Z" fill="#794CFF"/>
</svg>
