<svg width="17" height="17" viewBox="0 0 17 17" fill="none" xmlns="http://www.w3.org/2000/svg">
<path d="M4.26628 9.24837C1.97135 9.24837 0.0833333 7.36035 0.0833333 5.05729C0.0833333 2.76237 1.97135 0.866211 4.26628 0.866211C6.56934 0.866211 8.45736 2.76237 8.45736 5.05729C8.45736 7.34408 6.54492 9.24837 4.26628 9.24837ZM10.3861 3.56803C9.9873 3.56803 9.66992 3.25065 9.66992 2.85189C9.66992 2.45313 9.9873 2.13574 10.3861 2.13574H16.1315C16.5303 2.13574 16.8558 2.45313 16.8558 2.85189C16.8558 3.25065 16.5303 3.56803 16.1315 3.56803H10.3861ZM3.79427 7.3278C3.98958 7.3278 4.17676 7.23828 4.27441 7.10807L6.63444 3.86914C6.70768 3.75521 6.74837 3.63314 6.74837 3.52734C6.74837 3.20182 6.47982 2.94954 6.17057 2.94954C5.96712 2.94954 5.79622 3.05534 5.68229 3.20996L3.76172 5.87109L2.81771 4.83757C2.72005 4.72363 2.57357 4.65039 2.38639 4.65039C2.07715 4.65039 1.80859 4.87826 1.80859 5.22819C1.80859 5.36654 1.86556 5.5293 1.97135 5.64323L3.3304 7.13249C3.45247 7.27083 3.63965 7.3278 3.79427 7.3278ZM10.3861 7.83236C9.9873 7.83236 9.66992 7.51497 9.66992 7.11621C9.66992 6.71745 9.9873 6.40007 10.3861 6.40007H16.1315C16.5303 6.40007 16.8558 6.71745 16.8558 7.11621C16.8558 7.51497 16.5303 7.83236 16.1315 7.83236H10.3861ZM0.791341 12.0967C0.392578 12.0967 0.0751952 11.7793 0.0751952 11.3805C0.0751952 10.9818 0.392578 10.6644 0.791341 10.6644H16.1315C16.5303 10.6644 16.8558 10.9818 16.8558 11.3805C16.8558 11.7793 16.5303 12.0967 16.1315 12.0967H0.791341ZM0.791341 16.3529C0.392578 16.3529 0.0751952 16.0436 0.0751952 15.6449C0.0751952 15.238 0.392578 14.9287 0.791341 14.9287H16.1315C16.5303 14.9287 16.8558 15.238 16.8558 15.6449C16.8558 16.0436 16.5303 16.3529 16.1315 16.3529H0.791341Z" fill="#794CFF"/>
</svg>
