<svg width="205" height="208" viewBox="0 0 205 208" fill="none" xmlns="http://www.w3.org/2000/svg">
<path d="M200.792 42.3382L196.223 39.7007C196.759 36.8628 196.759 33.9497 196.223 31.1118L200.792 28.4743C202.594 27.4342 203.909 25.7208 204.448 23.711C204.987 21.7013 204.705 19.5599 203.665 17.7578C202.625 15.9558 200.911 14.6407 198.901 14.102C196.892 13.5632 194.75 13.8449 192.948 14.885L188.369 17.5323C186.178 15.6523 183.659 14.1931 180.937 13.228V7.95312C180.937 5.87283 180.111 3.87774 178.64 2.40676C177.169 0.935767 175.174 0.109375 173.094 0.109375C171.013 0.109375 169.018 0.935767 167.547 2.40676C166.076 3.87774 165.25 5.87283 165.25 7.95312V13.228C162.529 14.1931 160.009 15.6523 157.818 17.5323L153.239 14.885C152.347 14.37 151.362 14.0358 150.34 13.9014C149.319 13.7671 148.281 13.8352 147.286 14.102C146.291 14.3687 145.358 14.8289 144.541 15.4561C143.723 16.0834 143.038 16.8655 142.523 17.7578C142.008 18.6501 141.673 19.6351 141.539 20.6565C141.405 21.678 141.473 22.7159 141.74 23.711C142.006 24.7062 142.467 25.639 143.094 26.4563C143.721 27.2736 144.503 27.9593 145.395 28.4743L149.964 31.1118C149.428 33.9497 149.428 36.8628 149.964 39.7007L145.395 42.3382C143.899 43.2011 142.73 44.5338 142.068 46.1294C141.407 47.725 141.291 49.4943 141.738 51.1627C142.185 52.8311 143.17 54.3053 144.54 55.3565C145.911 56.4078 147.59 56.9772 149.317 56.9766C150.695 56.9808 152.048 56.6187 153.239 55.9275L157.818 53.2802C160.009 55.1602 162.529 56.6194 165.25 57.5844V62.8594C165.25 64.9397 166.076 66.9347 167.547 68.4057C169.018 69.8767 171.013 70.7031 173.094 70.7031C175.174 70.7031 177.169 69.8767 178.64 68.4057C180.111 66.9347 180.937 64.9397 180.937 62.8594V57.5844C183.659 56.6194 186.178 55.1602 188.369 53.2802L192.948 55.9275C194.139 56.6187 195.493 56.9808 196.87 56.9766C198.597 56.9772 200.276 56.4078 201.647 55.3565C203.017 54.3053 204.003 52.8311 204.45 51.1627C204.897 49.4943 204.78 47.725 204.119 46.1294C203.458 44.5338 202.288 43.2011 200.792 42.3382ZM173.094 43.25C171.542 43.25 170.026 42.79 168.736 41.9281C167.446 41.0662 166.441 39.8412 165.847 38.4079C165.253 36.9747 165.098 35.3975 165.401 33.876C165.703 32.3545 166.45 30.9568 167.547 29.8599C168.644 28.7629 170.042 28.0159 171.563 27.7132C173.085 27.4106 174.662 27.5659 176.095 28.1596C177.529 28.7532 178.754 29.7586 179.616 31.0485C180.477 32.3384 180.937 33.8549 180.937 35.4062C180.937 37.4865 180.111 39.4816 178.64 40.9526C177.169 42.4236 175.174 43.25 173.094 43.25ZM102.5 55.0156C111.032 55.0156 119.373 57.5458 126.468 62.2861C133.562 67.0265 139.091 73.7641 142.357 81.647C145.622 89.53 146.476 98.2041 144.812 106.573C143.147 114.941 139.038 122.628 133.005 128.661C126.972 134.695 119.285 138.803 110.916 140.468C102.548 142.133 93.8737 141.278 85.9908 138.013C78.1078 134.748 71.3702 129.218 66.6298 122.124C61.8895 115.029 59.3593 106.689 59.3593 98.1562C59.3593 86.7146 63.9045 75.7416 71.9949 67.6512C80.0854 59.5608 91.0584 55.0156 102.5 55.0156ZM203.057 89.0183C206.64 110.32 203.361 132.208 193.694 151.525C184.026 170.841 168.469 186.585 149.27 196.484C130.071 206.382 108.223 209.923 86.8805 206.595C65.5378 203.267 45.805 193.243 30.5311 177.969C15.2572 162.695 5.23255 142.962 1.90462 121.619C-1.42331 100.277 2.11767 78.4287 12.0163 59.2296C21.9149 40.0306 37.6589 24.4742 56.9752 14.8063C76.2914 5.13854 98.1804 1.85966 119.482 5.44312C121.518 5.8032 123.329 6.95268 124.522 8.64152C125.715 10.3304 126.193 12.4219 125.852 14.4613C125.511 16.5007 124.378 18.3228 122.7 19.5314C121.023 20.7399 118.936 21.2372 116.893 20.9149C104.521 18.8336 91.8439 19.4734 79.7441 22.7896C67.6442 26.1059 56.4124 32.019 46.8301 40.1174C37.2479 48.2158 29.5455 58.305 24.2589 69.6829C18.9724 81.0607 16.2286 93.4539 16.2187 106C16.2001 127.121 23.9629 147.509 38.0243 163.269C43.727 154.998 50.9708 147.904 59.3593 142.375C60.0745 141.903 60.9248 141.678 61.78 141.735C62.6353 141.791 63.4484 142.127 64.095 142.689C74.752 151.91 88.3732 156.985 102.466 156.985C116.558 156.985 130.179 151.91 140.836 142.689C141.484 142.124 142.299 141.788 143.156 141.731C144.013 141.674 144.866 141.901 145.582 142.375C153.979 147.904 161.232 154.998 166.946 163.269C181.018 147.513 188.792 127.125 188.781 106C188.782 101.177 188.381 96.3631 187.585 91.6067C187.405 90.5864 187.428 89.5404 187.654 88.5292C187.88 87.518 188.305 86.5616 188.902 85.7153C189.5 84.8689 190.26 84.1495 191.137 83.5984C192.015 83.0473 192.993 82.6755 194.015 82.5045C195.037 82.3336 196.082 82.3668 197.091 82.6022C198.1 82.8377 199.053 83.2708 199.894 83.8764C200.734 84.4821 201.447 85.2483 201.99 86.1308C202.533 87.0134 202.895 87.9948 203.057 89.0183Z" fill="url(#paint0_linear_4631_360)"/>
<defs>
<linearGradient id="paint0_linear_4631_360" x1="102.702" y1="0.109375" x2="102.702" y2="207.812" gradientUnits="userSpaceOnUse">
<stop stop-color="white"/>
<stop offset="1" stop-color="white" stop-opacity="0"/>
</linearGradient>
</defs>
</svg>
