<svg width="205" height="205" viewBox="0 0 205 205" fill="none" xmlns="http://www.w3.org/2000/svg">
<path d="M141.719 31.9062C141.719 29.8259 142.545 27.8309 144.016 26.3599C145.487 24.8889 147.482 24.0625 149.562 24.0625H196.625C198.705 24.0625 200.7 24.8889 202.171 26.3599C203.642 27.8309 204.469 29.8259 204.469 31.9062C204.469 33.9865 203.642 35.9816 202.171 37.4526C200.7 38.9236 198.705 39.75 196.625 39.75H149.562C147.482 39.75 145.487 38.9236 144.016 37.4526C142.545 35.9816 141.719 33.9865 141.719 31.9062ZM194.027 79.0766C191.975 79.4199 190.144 80.5642 188.936 82.2576C187.728 83.9511 187.242 86.055 187.585 88.1067C188.381 92.8631 188.782 97.6774 188.781 102.5C188.8 123.621 181.037 144.009 166.976 159.769C161.27 151.5 154.027 144.407 145.641 138.875C144.924 138.401 144.072 138.174 143.215 138.231C142.358 138.288 141.543 138.624 140.895 139.189C130.238 148.41 116.617 153.485 102.524 153.485C88.432 153.485 74.8108 148.41 64.1538 139.189C63.5026 138.613 62.6782 138.269 61.8103 138.212C60.9423 138.155 60.0802 138.389 59.3593 138.875C50.9603 144.401 43.7062 151.495 37.9949 159.769C26.9602 147.335 19.7529 131.977 17.2397 115.543C14.7265 99.1094 17.0146 82.2996 23.8286 67.1355C30.6427 51.9713 41.6926 39.0986 55.6493 30.0658C69.6061 21.0329 85.8752 16.2244 102.5 16.2187C107.323 16.218 112.137 16.6181 116.893 17.4149C118.936 17.7372 121.023 17.2399 122.7 16.0314C124.378 14.8228 125.511 13.0006 125.852 10.9613C126.193 8.92194 125.715 6.83035 124.522 5.14151C123.329 3.45267 121.518 2.30319 119.482 1.94311C98.1804 -1.64035 76.2914 1.63853 56.9752 11.3063C37.6589 20.9741 21.9149 36.5306 12.0163 55.7296C2.11767 74.9287 -1.42331 96.7768 1.90462 118.119C5.23255 139.462 15.2572 159.195 30.5311 174.469C45.805 189.743 65.5378 199.767 86.8805 203.095C108.223 206.423 130.071 202.882 149.27 192.984C168.469 183.085 184.026 167.341 193.694 148.025C203.361 128.708 206.64 106.82 203.057 85.5183C202.713 83.4666 201.569 81.6354 199.876 80.4273C198.182 79.2193 196.078 78.7334 194.027 79.0766ZM59.3593 94.6562C59.3593 103.189 61.8895 111.529 66.6298 118.624C71.3702 125.718 78.1078 131.248 85.9908 134.513C93.8737 137.778 102.548 138.633 110.916 136.968C119.285 135.303 126.972 131.195 133.005 125.161C139.038 119.128 143.147 111.441 144.812 103.073C146.476 94.7041 145.622 86.0299 142.357 78.147C139.091 70.2641 133.562 63.5265 126.468 58.7861C119.373 54.0458 111.032 51.5156 102.5 51.5156C91.0584 51.5156 80.0854 56.0608 71.9949 64.1512C63.9045 72.2416 59.3593 83.2146 59.3593 94.6562Z" fill="url(#paint0_linear_4592_22)"/>
<defs>
<linearGradient id="paint0_linear_4592_22" x1="102.578" y1="0.531128" x2="102.578" y2="204.312" gradientUnits="userSpaceOnUse">
<stop stop-color="white"/>
<stop offset="1" stop-color="white" stop-opacity="0"/>
</linearGradient>
</defs>
</svg>
