<svg width="205" height="204" viewBox="0 0 205 204" fill="none" xmlns="http://www.w3.org/2000/svg">
<path d="M102.5 51.0156C111.032 51.0156 119.373 53.5458 126.468 58.2861C133.562 63.0265 139.091 69.7641 142.357 77.647C145.622 85.5299 146.476 94.2041 144.812 102.573C143.147 110.941 139.038 118.628 133.005 124.661C126.972 130.695 119.285 134.803 110.916 136.468C102.548 138.133 93.8737 137.278 85.9908 134.013C78.1078 130.748 71.3702 125.218 66.6298 118.124C61.8895 111.029 59.3593 102.689 59.3593 94.1562C59.3593 82.7146 63.9045 71.7416 71.9949 63.6512C80.0854 55.5608 91.0584 51.0156 102.5 51.0156ZM149.562 39.25H165.25V54.9375C165.25 57.0178 166.076 59.0129 167.547 60.4839C169.018 61.9548 171.013 62.7812 173.094 62.7812C175.174 62.7812 177.169 61.9548 178.64 60.4839C180.111 59.0129 180.937 57.0178 180.937 54.9375V39.25H196.625C198.705 39.25 200.7 38.4236 202.171 36.9526C203.642 35.4816 204.469 33.4865 204.469 31.4062C204.469 29.3259 203.642 27.3309 202.171 25.8599C200.7 24.3889 198.705 23.5625 196.625 23.5625H180.937V7.87499C180.937 5.7947 180.111 3.79961 178.64 2.32862C177.169 0.857632 175.174 0.0312394 173.094 0.0312394C171.013 0.0312394 169.018 0.857632 167.547 2.32862C166.076 3.79961 165.25 5.7947 165.25 7.87499V23.5625H149.562C147.482 23.5625 145.487 24.3889 144.016 25.8599C142.545 27.3309 141.719 29.3259 141.719 31.4062C141.719 33.4865 142.545 35.4816 144.016 36.9526C145.487 38.4236 147.482 39.25 149.562 39.25ZM194.027 78.5766C191.975 78.9199 190.144 80.0642 188.936 81.7576C187.728 83.4511 187.242 85.555 187.585 87.6067C188.381 92.3631 188.782 97.1774 188.781 102C188.8 123.121 181.037 143.509 166.976 159.269C161.27 151 154.027 143.907 145.641 138.375C144.924 137.901 144.072 137.674 143.215 137.731C142.358 137.788 141.543 138.124 140.895 138.689C130.238 147.91 116.617 152.985 102.524 152.985C88.432 152.985 74.8108 147.91 64.1538 138.689C63.5026 138.113 62.6782 137.769 61.8103 137.712C60.9423 137.655 60.0802 137.889 59.3593 138.375C50.9603 143.901 43.7062 150.995 37.9949 159.269C26.9602 146.835 19.7529 131.477 17.2397 115.043C14.7265 98.6094 17.0146 81.7996 23.8286 66.6355C30.6427 51.4713 41.6926 38.5986 55.6493 29.5658C69.6061 20.5329 85.8752 15.7244 102.5 15.7187C107.323 15.718 112.137 16.1181 116.893 16.9149C118.936 17.2372 121.023 16.7399 122.7 15.5314C124.378 14.3228 125.511 12.5006 125.852 10.4613C126.193 8.42194 125.715 6.33035 124.522 4.64151C123.329 2.95267 121.518 1.80319 119.482 1.44311C98.1804 -2.14035 76.2914 1.13853 56.9752 10.8063C37.6589 20.4741 21.9149 36.0306 12.0163 55.2296C2.11767 74.4287 -1.42331 96.2768 1.90462 117.619C5.23255 138.962 15.2572 158.695 30.5311 173.969C45.805 189.243 65.5378 199.267 86.8805 202.595C108.223 205.923 130.071 202.382 149.27 192.484C168.469 182.585 184.026 166.841 193.694 147.525C203.361 128.208 206.64 106.32 203.057 85.0183C202.713 82.9666 201.569 81.1354 199.876 79.9273C198.182 78.7193 196.078 78.2334 194.027 78.5766Z" fill="url(#paint0_linear_4592_244)"/>
<defs>
<linearGradient id="paint0_linear_4592_244" x1="102.578" y1="0.0311279" x2="102.578" y2="203.812" gradientUnits="userSpaceOnUse">
<stop stop-color="white"/>
<stop offset="1" stop-color="white" stop-opacity="0"/>
</linearGradient>
</defs>
</svg>
