<svg width="16" height="20" viewBox="0 0 16 20" fill="none" xmlns="http://www.w3.org/2000/svg">
<path d="M2.72005 17.777C0.978516 17.777 0.0751952 16.8737 0.0751952 15.1077V2.83561C0.0751952 1.0778 0.986654 0.166342 2.72005 0.166342H11.387C13.1286 0.166342 14.0319 1.06966 14.0319 2.83561V11.055C13.5924 10.5667 13.0472 10.1924 12.4368 9.95638V2.93327C12.4368 2.17643 12.0137 1.76139 11.2568 1.76139H2.8584C2.06901 1.76139 1.67025 2.18457 1.67025 2.93327V15.0264C1.67025 15.7832 2.06901 16.182 2.8584 16.182H6.2194C6.4554 16.7923 6.83789 17.3376 7.31803 17.777H2.72005ZM4.0791 5.07357C3.77799 5.07357 3.55827 4.83757 3.55827 4.5446C3.55827 4.25977 3.77799 4.04004 4.0791 4.04004H10.0361C10.3372 4.04004 10.557 4.25977 10.557 4.5446C10.557 4.83757 10.3372 5.07357 10.0361 5.07357H4.0791ZM4.0791 7.84863C3.77799 7.84863 3.55827 7.62077 3.55827 7.3278C3.55827 7.04297 3.77799 6.82324 4.0791 6.82324H10.0361C10.3372 6.82324 10.557 7.04297 10.557 7.3278C10.557 7.62077 10.3372 7.84863 10.0361 7.84863H4.0791ZM10.443 17.777C8.47363 17.777 6.84603 16.1657 6.84603 14.1882C6.84603 12.2188 8.47363 10.5911 10.443 10.5911C12.4206 10.5911 14.0319 12.2025 14.0319 14.1882C14.0319 14.9206 13.8122 15.6042 13.4297 16.1738L15.1956 17.9398C15.3421 18.0944 15.4316 18.2897 15.4316 18.485C15.4316 18.9326 15.1224 19.2581 14.6992 19.2581C14.4714 19.2581 14.2679 19.1768 14.0807 18.9814L12.3311 17.2399C11.7858 17.5817 11.1348 17.777 10.443 17.777ZM10.443 16.54C11.737 16.54 12.7868 15.4902 12.7868 14.1882C12.7868 12.9023 11.7288 11.8363 10.443 11.8363C9.14095 11.8363 8.08301 12.9023 8.08301 14.1882C8.08301 15.4902 9.14095 16.54 10.443 16.54Z" fill="#794CFF"/>
</svg>
