<svg width="15" height="19" viewBox="0 0 15 19" fill="none" xmlns="http://www.w3.org/2000/svg">
<path d="M3.22005 18.0863C1.47852 18.0863 0.575195 17.1748 0.575195 15.417V3.13672C0.575195 1.38704 1.47852 0.467448 3.22005 0.467448H7.14258C8.15983 0.467448 8.72135 0.630209 9.40495 1.32194L13.6774 5.66764C14.3854 6.38379 14.5319 6.90462 14.5319 8.03581V15.417C14.5319 17.1667 13.6286 18.0863 11.887 18.0863H3.22005ZM3.35026 16.4912H11.7487C12.5381 16.4912 12.9368 16.0762 12.9368 15.3193V8.2474H8.55046C7.39486 8.2474 6.81706 7.68587 6.81706 6.52214V2.0625H3.35026C2.56087 2.0625 2.17025 2.48568 2.17025 3.23438V15.3193C2.17025 16.0762 2.56087 16.4912 3.35026 16.4912ZM8.69694 6.84766H12.7171L8.22493 2.28223V6.36751C8.22493 6.70117 8.36328 6.84766 8.69694 6.84766ZM10.4548 10.3877C10.7477 10.3877 10.9674 10.6156 10.9674 10.9004C10.9674 11.1934 10.7477 11.4212 10.4548 11.4212H4.49772C4.18848 11.4212 3.96875 11.1934 3.96875 10.9004C3.96875 10.6156 4.18848 10.3877 4.49772 10.3877H10.4548ZM10.4548 13.1221C10.7477 13.1221 10.9674 13.3499 10.9674 13.6429C10.9674 13.9277 10.7477 14.1475 10.4548 14.1475H4.49772C4.18848 14.1475 3.96875 13.9277 3.96875 13.6429C3.96875 13.3499 4.18848 13.1221 4.49772 13.1221H10.4548Z" fill="#794CFF"/>
</svg>
