<svg width="32" height="33" viewBox="0 0 32 33" fill="none" xmlns="http://www.w3.org/2000/svg">
<path fill-rule="evenodd" clip-rule="evenodd" d="M14.3333 2.81494H16.9999C19.5146 2.81494 20.7706 2.81494 21.5519 3.59627C22.3333 4.37761 22.3333 5.63361 22.3333 8.14827V28.4816H28.9999C29.2651 28.4816 29.5195 28.587 29.707 28.7745C29.8946 28.962 29.9999 29.2164 29.9999 29.4816C29.9999 29.7468 29.8946 30.0012 29.707 30.1887C29.5195 30.3763 29.2651 30.4816 28.9999 30.4816H2.33325C2.06804 30.4816 1.81368 30.3763 1.62615 30.1887C1.43861 30.0012 1.33325 29.7468 1.33325 29.4816C1.33325 29.2164 1.43861 28.962 1.62615 28.7745C1.81368 28.587 2.06804 28.4816 2.33325 28.4816H8.99992V8.14827C8.99992 5.63361 8.99992 4.37761 9.78125 3.59627C10.5626 2.81494 11.8186 2.81494 14.3333 2.81494ZM11.9999 16.1483C11.9999 15.8831 12.1053 15.6287 12.2928 15.4412C12.4803 15.2536 12.7347 15.1483 12.9999 15.1483H18.3333C18.5985 15.1483 18.8528 15.2536 19.0404 15.4412C19.2279 15.6287 19.3333 15.8831 19.3333 16.1483C19.3333 16.4135 19.2279 16.6678 19.0404 16.8554C18.8528 17.0429 18.5985 17.1483 18.3333 17.1483H12.9999C12.7347 17.1483 12.4803 17.0429 12.2928 16.8554C12.1053 16.6678 11.9999 16.4135 11.9999 16.1483ZM11.9999 20.1483C11.9999 19.8831 12.1053 19.6287 12.2928 19.4412C12.4803 19.2536 12.7347 19.1483 12.9999 19.1483H18.3333C18.5985 19.1483 18.8528 19.2536 19.0404 19.4412C19.2279 19.6287 19.3333 19.8831 19.3333 20.1483C19.3333 20.4135 19.2279 20.6678 19.0404 20.8554C18.8528 21.0429 18.5985 21.1483 18.3333 21.1483H12.9999C12.7347 21.1483 12.4803 21.0429 12.2928 20.8554C12.1053 20.6678 11.9999 20.4135 11.9999 20.1483ZM15.6666 24.4816C15.9318 24.4816 16.1862 24.587 16.3737 24.7745C16.5612 24.962 16.6666 25.2164 16.6666 25.4816V28.4816H14.6666V25.4816C14.6666 25.2164 14.7719 24.962 14.9595 24.7745C15.147 24.587 15.4014 24.4816 15.6666 24.4816ZM12.3333 9.48161C12.3333 8.50915 12.7196 7.57652 13.4072 6.88888C14.0948 6.20125 15.0275 5.81494 15.9999 5.81494C16.9724 5.81494 17.905 6.20125 18.5926 6.88888C19.2803 7.57652 19.6666 8.50915 19.6666 9.48161C19.6666 10.4541 19.2803 11.3867 18.5926 12.0743C17.905 12.762 16.9724 13.1483 15.9999 13.1483C15.0275 13.1483 14.0948 12.762 13.4072 12.0743C12.7196 11.3867 12.3333 10.4541 12.3333 9.48161Z" fill="#794CFF"/>
<path opacity="0.5" d="M14.3333 9.48161C14.3333 9.03958 14.5088 8.61566 14.8214 8.3031C15.134 7.99054 15.5579 7.81494 15.9999 7.81494C16.4419 7.81494 16.8659 7.99054 17.1784 8.3031C17.491 8.61566 17.6666 9.03958 17.6666 9.48161C17.6666 9.92364 17.491 10.3476 17.1784 10.6601C16.8659 10.9727 16.4419 11.1483 15.9999 11.1483C15.5579 11.1483 15.134 10.9727 14.8214 10.6601C14.5088 10.3476 14.3333 9.92364 14.3333 9.48161Z" fill="#794CFF"/>
<path opacity="0.5" d="M27.8839 8.00027C28.3333 8.67227 28.3333 9.60827 28.3333 11.4816V28.4816H28.9999C29.2651 28.4816 29.5195 28.587 29.707 28.7745C29.8946 28.962 29.9999 29.2164 29.9999 29.4816C29.9999 29.7468 29.8946 30.0012 29.707 30.1887C29.5195 30.3763 29.2651 30.4816 28.9999 30.4816H2.33325C2.06804 30.4816 1.81368 30.3763 1.62615 30.1887C1.43861 30.0012 1.33325 29.7468 1.33325 29.4816C1.33325 29.2164 1.43861 28.962 1.62615 28.7745C1.81368 28.587 2.06804 28.4816 2.33325 28.4816H2.99992V11.4816C2.99992 9.60827 2.99992 8.67227 3.44925 8.00027C3.64386 7.70898 3.89396 7.45888 4.18525 7.26427C4.77325 6.87094 7.56792 6.82161 9.00925 6.81627C9.00481 7.20472 9.00303 7.60916 9.00392 8.02961V9.81494H5.66659C5.40137 9.81494 5.14701 9.9203 4.95948 10.1078C4.77194 10.2954 4.66659 10.5497 4.66659 10.8149C4.66659 11.0802 4.77194 11.3345 4.95948 11.522C5.14701 11.7096 5.40137 11.8149 5.66659 11.8149H9.00392V13.8149H5.66659C5.40137 13.8149 5.14701 13.9203 4.95948 14.1078C4.77194 14.2954 4.66659 14.5497 4.66659 14.8149C4.66659 15.0802 4.77194 15.3345 4.95948 15.522C5.14701 15.7096 5.40137 15.8149 5.66659 15.8149H9.00392V17.8149H5.66659C5.40137 17.8149 5.14701 17.9203 4.95948 18.1078C4.77194 18.2954 4.66659 18.5497 4.66659 18.8149C4.66659 19.0802 4.77194 19.3345 4.95948 19.522C5.14701 19.7096 5.40137 19.8149 5.66659 19.8149H9.00392V28.4816H22.3373V19.8149H25.6666C25.9318 19.8149 26.1862 19.7096 26.3737 19.522C26.5612 19.3345 26.6666 19.0802 26.6666 18.8149C26.6666 18.5497 26.5612 18.2954 26.3737 18.1078C26.1862 17.9203 25.9318 17.8149 25.6666 17.8149H22.3373V15.8149H25.6666C25.9318 15.8149 26.1862 15.7096 26.3737 15.522C26.5612 15.3345 26.6666 15.0802 26.6666 14.8149C26.6666 14.5497 26.5612 14.2954 26.3737 14.1078C26.1862 13.9203 25.9318 13.8149 25.6666 13.8149H22.3373V11.8149H25.6666C25.9318 11.8149 26.1862 11.7096 26.3737 11.522C26.5612 11.3345 26.6666 11.0802 26.6666 10.8149C26.6666 10.5497 26.5612 10.2954 26.3737 10.1078C26.1862 9.9203 25.9318 9.81494 25.6666 9.81494H22.3373V8.02827C22.3381 7.60961 22.3364 7.20516 22.3319 6.81494C23.7733 6.82161 26.5586 6.87094 27.1479 7.26427C27.4392 7.45888 27.6893 7.70898 27.8839 8.00027Z" fill="#794CFF"/>
</svg>
