<svg width="14" height="13" viewBox="0 0 14 13" fill="none" xmlns="http://www.w3.org/2000/svg">
<path d="M2.10547 12.6003C0.998698 12.6003 0.328125 11.832 0.328125 10.8359C0.328125 10.5299 0.40625 10.2174 0.582031 9.92448L5.63411 1.1224C5.96615 0.529947 6.55208 0.230468 7.15104 0.230468C7.75 0.230468 8.32943 0.529947 8.66797 1.1224L13.7201 9.92448C13.8828 10.2109 13.974 10.5299 13.974 10.8359C13.974 11.832 13.3034 12.6003 12.1966 12.6003H2.10547ZM7.15755 8.2513C7.47656 8.2513 7.66536 8.0625 7.67188 7.71094L7.76953 4.17578C7.77604 3.83073 7.5026 3.57682 7.15104 3.57682C6.78646 3.57682 6.53255 3.82422 6.53906 4.16927L6.6237 7.71094C6.63021 8.05599 6.81901 8.2513 7.15755 8.2513ZM7.15755 10.4323C7.54167 10.4323 7.88021 10.1263 7.88021 9.73568C7.88021 9.33854 7.54818 9.03255 7.15755 9.03255C6.76042 9.03255 6.42839 9.34505 6.42839 9.73568C6.42839 10.1198 6.76693 10.4323 7.15755 10.4323Z" fill="#FF791F"/>
</svg>
