<!-- <svg width="24" height="24" viewBox="0 0 24 24" fill="none" xmlns="http://www.w3.org/2000/svg">
  <path d="M20 21V19C20 17.9391 19.5786 16.9217 18.8284 16.1716C18.0783 15.4214 17.0609 15 16 15H8C6.93913 15 5.92172 15.4214 5.17157 16.1716C4.42143 16.9217 4 17.9391 4 19V21" stroke="currentColor" stroke-width="2" stroke-linecap="round" stroke-linejoin="round"/>
  <path d="M12 11C14.2091 11 16 9.20914 16 7C16 4.79086 14.2091 3 12 3C9.79086 3 8 4.79086 8 7C8 9.20914 9.79086 11 12 11Z" stroke="currentColor" stroke-width="2" stroke-linecap="round" stroke-linejoin="round"/>
</svg> -->

<svg width="32" height="32" viewBox="0 0 32 32" fill="none" xmlns="http://www.w3.org/2000/svg">
<path d="M20.6667 10C20.6667 10.6129 20.546 11.2197 20.3114 11.7859C20.0769 12.3521 19.7332 12.8665 19.2998 13.2999C18.8665 13.7332 18.352 14.077 17.7859 14.3115C17.2197 14.546 16.6128 14.6667 16 14.6667C15.3872 14.6667 14.7803 14.546 14.2141 14.3115C13.648 14.077 13.1335 13.7332 12.7002 13.2999C12.2668 12.8665 11.9231 12.3521 11.6886 11.7859C11.454 11.2197 11.3333 10.6129 11.3333 10C11.3333 8.76236 11.825 7.57538 12.7002 6.70021C13.5753 5.82504 14.7623 5.33337 16 5.33337C17.2377 5.33337 18.4247 5.82504 19.2998 6.70021C20.175 7.57538 20.6667 8.76236 20.6667 10Z" fill="#414D60"/>
<path opacity="0.4" d="M26 9.99996C26 10.884 25.6488 11.7319 25.0237 12.357C24.3986 12.9821 23.5507 13.3333 22.6667 13.3333C21.7826 13.3333 20.9348 12.9821 20.3096 12.357C19.6845 11.7319 19.3333 10.884 19.3333 9.99996C19.3333 9.1159 19.6845 8.26806 20.3096 7.64294C20.9348 7.01782 21.7826 6.66663 22.6667 6.66663C23.5507 6.66663 24.3986 7.01782 25.0237 7.64294C25.6488 8.26806 26 9.1159 26 9.99996ZM6 9.99996C6 10.884 6.35119 11.7319 6.97631 12.357C7.60143 12.9821 8.44928 13.3333 9.33333 13.3333C10.2174 13.3333 11.0652 12.9821 11.6904 12.357C12.3155 11.7319 12.6667 10.884 12.6667 9.99996C12.6667 9.1159 12.3155 8.26806 11.6904 7.64294C11.0652 7.01782 10.2174 6.66663 9.33333 6.66663C8.44928 6.66663 7.60143 7.01782 6.97631 7.64294C6.35119 8.26806 6 9.1159 6 9.99996Z" fill="#414D60"/>
<path d="M24 22C24 24.5774 20.4187 26.6667 16 26.6667C11.5813 26.6667 8 24.5774 8 22C8 19.4227 11.5813 17.3334 16 17.3334C20.4187 17.3334 24 19.4227 24 22Z" fill="#414D60"/>
<path opacity="0.4" d="M29.3333 22C29.3333 23.84 26.9467 25.3333 24 25.3333C21.0533 25.3333 18.6667 23.84 18.6667 22C18.6667 20.16 21.0533 18.6666 24 18.6666C26.9467 18.6666 29.3333 20.16 29.3333 22ZM2.66667 22C2.66667 23.84 5.05333 25.3333 8 25.3333C10.9467 25.3333 13.3333 23.84 13.3333 22C13.3333 20.16 10.9467 18.6666 8 18.6666C5.05333 18.6666 2.66667 20.16 2.66667 22Z" fill="#414D60"/>
</svg>
