<svg width="48" height="49" viewBox="0 0 48 49" fill="none" xmlns="http://www.w3.org/2000/svg">
<path d="M31 15.2266C31 16.1458 30.8189 17.0561 30.4672 17.9053C30.1154 18.7546 29.5998 19.5263 28.9497 20.1763C28.2997 20.8263 27.5281 21.3419 26.6788 21.6937C25.8295 22.0455 24.9193 22.2266 24 22.2266C23.0807 22.2266 22.1705 22.0455 21.3212 21.6937C20.4719 21.3419 19.7003 20.8263 19.0503 20.1763C18.4002 19.5263 17.8846 18.7546 17.5328 17.9053C17.1811 17.0561 17 16.1458 17 15.2266C17 13.37 17.7375 11.5896 19.0503 10.2768C20.363 8.96406 22.1435 8.22656 24 8.22656C25.8565 8.22656 27.637 8.96406 28.9497 10.2768C30.2625 11.5896 31 13.37 31 15.2266Z" fill="#794CFF"/>
<path opacity="0.4" d="M39 15.2266C39 16.5526 38.4732 17.8244 37.5355 18.7621C36.5979 19.6998 35.3261 20.2266 34 20.2266C32.6739 20.2266 31.4021 19.6998 30.4645 18.7621C29.5268 17.8244 29 16.5526 29 15.2266C29 13.9005 29.5268 12.6287 30.4645 11.691C31.4021 10.7533 32.6739 10.2266 34 10.2266C35.3261 10.2266 36.5979 10.7533 37.5355 11.691C38.4732 12.6287 39 13.9005 39 15.2266ZM9 15.2266C9 16.5526 9.52678 17.8244 10.4645 18.7621C11.4021 19.6998 12.6739 20.2266 14 20.2266C15.3261 20.2266 16.5979 19.6998 17.5355 18.7621C18.4732 17.8244 19 16.5526 19 15.2266C19 13.9005 18.4732 12.6287 17.5355 11.691C16.5979 10.7533 15.3261 10.2266 14 10.2266C12.6739 10.2266 11.4021 10.7533 10.4645 11.691C9.52678 12.6287 9 13.9005 9 15.2266Z" fill="#794CFF"/>
<path d="M36 33.2266C36 37.0926 30.628 40.2266 24 40.2266C17.372 40.2266 12 37.0926 12 33.2266C12 29.3606 17.372 26.2266 24 26.2266C30.628 26.2266 36 29.3606 36 33.2266Z" fill="#794CFF"/>
<path opacity="0.4" d="M44 33.2266C44 35.9866 40.42 38.2266 36 38.2266C31.58 38.2266 28 35.9866 28 33.2266C28 30.4666 31.58 28.2266 36 28.2266C40.42 28.2266 44 30.4666 44 33.2266ZM4 33.2266C4 35.9866 7.58 38.2266 12 38.2266C16.42 38.2266 20 35.9866 20 33.2266C20 30.4666 16.42 28.2266 12 28.2266C7.58 28.2266 4 30.4666 4 33.2266Z" fill="#794CFF"/>
</svg>
