<svg width="20" height="21" viewBox="0 0 20 21" fill="none" xmlns="http://www.w3.org/2000/svg">
<path d="M9.99862 8.55857C11.8396 8.55857 13.3319 7.06619 13.3319 5.22524C13.3319 3.38429 11.8396 1.89191 9.99862 1.89191C8.15767 1.89191 6.66528 3.38429 6.66528 5.22524C6.66528 7.06619 8.15767 8.55857 9.99862 8.55857Z" stroke="white" stroke-width="1.25"/>
<path d="M14.1654 18.5586C16.0063 18.5586 17.4987 17.0662 17.4987 15.2252C17.4987 13.3843 16.0063 11.8919 14.1654 11.8919C12.3244 11.8919 10.832 13.3843 10.832 15.2252C10.832 17.0662 12.3244 18.5586 14.1654 18.5586Z" stroke="white" stroke-width="1.25"/>
<path d="M14.1661 14.1152V16.3369M13.0553 15.2261H15.277" stroke="white" stroke-width="1.25" stroke-linecap="round" stroke-linejoin="round"/>
<path opacity="0.5" d="M11.6653 17.5869C11.1369 17.6769 10.5778 17.7253 9.99862 17.7253C6.77695 17.7253 4.16528 16.2336 4.16528 14.3919C4.16528 12.5503 6.77695 11.0586 9.99862 11.0586C11.4261 11.0586 12.7344 11.3519 13.7486 11.8386" stroke="white" stroke-width="1.25"/>
</svg>
