<svg width="80" height="71" viewBox="0 0 80 71" fill="none" xmlns="http://www.w3.org/2000/svg">
<rect y="0.226562" width="70" height="70" rx="8" fill="#B0D7FF"/>
<g clip-path="url(#clip0_4706_10220)">
<g opacity="0.6">
<g clip-path="url(#clip1_4706_10220)">
<rect x="18" y="-6.83398" width="37.967" height="23.3379" rx="2.53113" transform="rotate(-18.3289 18 -6.83398)" fill="url(#paint0_linear_4706_10220)"/>
<g clip-path="url(#clip2_4706_10220)">
<path fill-rule="evenodd" clip-rule="evenodd" d="M39.7671 -8.99599L40.5498 -6.27526C40.5782 -6.17647 40.6189 -6.03497 40.6715 -5.91905C40.7235 -5.79914 40.8018 -5.69248 40.9007 -5.60697C40.9995 -5.52146 41.1163 -5.4593 41.2424 -5.42511C41.3645 -5.39606 41.4914 -5.3932 41.6147 -5.41671C41.738 -5.44021 41.8549 -5.48956 41.9577 -5.5615C42.0632 -5.63038 42.1722 -5.72725 42.2535 -5.79978L43.1171 -6.56281L44.2542 -6.37533C44.3613 -6.35796 44.5054 -6.33291 44.6316 -6.3297C44.7569 -6.32356 44.8822 -6.34404 44.9991 -6.38979C45.116 -6.43554 45.2218 -6.50553 45.3097 -6.59514C45.3982 -6.69118 45.464 -6.80591 45.5021 -6.93081C45.5402 -7.05571 45.5498 -7.18759 45.53 -7.31668C45.5139 -7.4431 45.4732 -7.58461 45.4448 -7.6834L44.2911 -11.6937C44.3906 -11.7275 44.488 -11.7597 44.5833 -11.7903C45.5276 -12.0986 46.5059 -11.532 46.7806 -10.577L49.6506 -0.600128C49.9353 0.38955 49.3589 1.42073 48.3898 1.76696C47.5419 2.0687 46.5595 2.46597 45.8381 2.89609C44.9484 3.42765 44.3405 4.3561 43.2038 5.0377C42.6894 5.3466 42.0912 5.60541 41.8385 5.74172L37.9423 -7.80228C38.2069 -7.95451 39.1203 -8.33677 39.3372 -8.56105C39.4739 -8.70445 39.6172 -8.84943 39.7671 -8.99599ZM46.7773 -2.97769C46.8231 -2.89873 46.8528 -2.81152 46.8649 -2.72105C46.877 -2.63058 46.8711 -2.53861 46.8476 -2.45041C46.8241 -2.36221 46.7835 -2.27951 46.728 -2.20703C46.6725 -2.13455 46.6033 -2.07371 46.5243 -2.028L43.2203 -0.1139C43.0608 -0.0215079 42.8712 0.00374695 42.6931 -0.0436913C42.515 -0.0911296 42.363 -0.207376 42.2706 -0.366856C42.1782 -0.526337 42.153 -0.715989 42.2004 -0.89409C42.2479 -1.07219 42.3641 -1.22415 42.5236 -1.31654L45.8276 -3.23064C45.9065 -3.27644 45.9937 -3.30623 46.0842 -3.3183C46.1747 -3.33037 46.2666 -3.32449 46.3548 -3.301C46.443 -3.27751 46.5257 -3.23686 46.5982 -3.18138C46.6707 -3.12591 46.7315 -3.05669 46.7773 -2.97769Z" fill="white"/>
<path opacity="0.5" d="M37.9526 -7.76658C37.639 -7.73803 36.9706 -7.63925 36.3368 -7.62844C35.0485 -7.60474 34.0661 -8.04489 33.0605 -8.02348C32.2111 -8.00465 31.1538 -7.81422 30.269 -7.61748C29.2761 -7.3974 28.7162 -6.37579 28.9973 -5.39857L31.851 4.52135C32.1352 5.50925 33.1719 6.07829 34.1766 5.85577C35.0552 5.66082 36.0985 5.47538 36.9382 5.45643C37.4038 5.44682 38.1308 5.5287 38.791 5.62304C39.801 5.76712 40.8214 5.807 41.8388 5.74271L37.9526 -7.76658Z" fill="white"/>
<path d="M33.0223 0.979236C33.0192 0.888071 33.0341 0.797182 33.066 0.711758C33.098 0.626334 33.1465 0.548049 33.2088 0.481372C33.271 0.414696 33.3458 0.360934 33.4288 0.323158C33.5119 0.285381 33.6015 0.264329 33.6927 0.261204L37.5087 0.127104C37.6928 0.120783 37.8719 0.187859 38.0066 0.313577C38.1412 0.439295 38.2204 0.613356 38.2267 0.797469C38.2331 0.981582 38.166 1.16067 38.0403 1.29532C37.9146 1.42998 37.7405 1.50918 37.5564 1.5155L33.7404 1.6496C33.6492 1.65274 33.5583 1.63788 33.4729 1.60589C33.3875 1.5739 33.3092 1.52539 33.2425 1.46314C33.1758 1.40089 33.1221 1.32612 33.0843 1.24309C33.0465 1.16006 33.0255 1.0704 33.0223 0.979236ZM32.6677 -3.29853C32.5757 -3.29666 32.4849 -3.2765 32.4007 -3.23924C32.3165 -3.20197 32.2406 -3.14834 32.1773 -3.08147C32.1141 -3.01459 32.0647 -2.9358 32.0322 -2.84969C31.9996 -2.76357 31.9845 -2.67184 31.9877 -2.57983C31.9909 -2.48782 32.0124 -2.39737 32.0509 -2.31374C32.0894 -2.2301 32.1441 -2.15496 32.2119 -2.09266C32.2797 -2.03037 32.3592 -1.98218 32.4458 -1.95089C32.5324 -1.9196 32.6243 -1.90583 32.7163 -1.91039L36.5323 -2.04449C36.7145 -2.05353 36.8859 -2.13391 37.0093 -2.26826C37.1328 -2.40261 37.1984 -2.58015 37.192 -2.76249C37.1856 -2.94483 37.1078 -3.11735 36.9752 -3.24274C36.8427 -3.36814 36.6661 -3.43635 36.4837 -3.43263L32.6677 -3.29853Z" fill="white"/>
</g>
</g>
<rect x="18.1999" y="-6.73356" width="37.6506" height="23.0215" rx="2.37294" transform="rotate(-18.3289 18.1999 -6.73356)" stroke="url(#paint1_linear_4706_10220)" stroke-width="0.316392"/>
</g>
</g>
<g clip-path="url(#clip3_4706_10220)">
<g opacity="0.4">
<g clip-path="url(#clip4_4706_10220)">
<rect x="7.70244" y="44.2266" width="40.1228" height="26.7485" rx="2.67485" transform="rotate(16.7357 7.70244 44.2266)" fill="url(#paint2_linear_4706_10220)"/>
<g clip-path="url(#clip5_4706_10220)">
<path fill-rule="evenodd" clip-rule="evenodd" d="M27.3966 56.3525L26.5006 59.2461C26.4681 59.3511 26.4215 59.5016 26.4005 59.6362C26.3767 59.774 26.3842 59.9154 26.4225 60.0499C26.4607 60.1844 26.5288 60.3085 26.6216 60.4131C26.7138 60.5108 26.8256 60.5878 26.9497 60.6391C27.0738 60.6903 27.2074 60.7148 27.3416 60.7108C27.4764 60.711 27.6307 60.6883 27.746 60.6711L28.9664 60.495L29.8738 61.3299C29.9595 61.4083 30.0737 61.5152 30.1847 61.5921C30.2933 61.6712 30.4174 61.7264 30.5488 61.754C30.6802 61.7816 30.816 61.7811 30.9472 61.7525C31.0828 61.7185 31.2089 61.6544 31.3163 61.5651C31.4237 61.4757 31.5096 61.3633 31.5677 61.2362C31.6274 61.1136 31.674 60.9631 31.7066 60.858L33.0272 56.593C33.136 56.6211 33.2421 56.6495 33.3453 56.678C34.3711 56.9562 34.9139 58.0371 34.5995 59.0527L31.314 69.6634C30.988 70.7159 29.8673 71.3004 28.7971 71.0416C27.8613 70.8141 26.7493 70.5932 25.8515 70.5548C24.7435 70.5084 23.6549 70.9825 22.238 70.9255C21.5965 70.9001 20.9094 70.7807 20.6033 70.7543L25.0635 56.35C25.3895 56.369 26.4311 56.5629 26.7567 56.4894C26.9631 56.4413 27.1764 56.3957 27.3966 56.3525ZM30.1379 65.8503C30.1326 65.9478 30.1081 66.0433 30.0658 66.1313C30.0235 66.2193 29.9643 66.2982 29.8915 66.3633C29.8188 66.4284 29.7339 66.4786 29.6417 66.5109C29.5496 66.5432 29.4519 66.557 29.3544 66.5516L25.2752 66.3258C25.0783 66.3149 24.8938 66.2262 24.7623 66.0793C24.6307 65.9323 24.563 65.7391 24.5739 65.5422C24.5848 65.3453 24.6734 65.1608 24.8204 65.0293C24.9673 64.8978 25.1605 64.83 25.3574 64.8409L29.4366 65.0667C29.5341 65.0721 29.6296 65.0966 29.7177 65.1389C29.8057 65.1811 29.8845 65.2404 29.9497 65.3131C30.0148 65.3859 30.065 65.4708 30.0973 65.563C30.1296 65.6551 30.1434 65.7527 30.1379 65.8503Z" fill="white"/>
<path d="M31.5723 56.2669C30.964 56.1543 30.3553 56.0768 29.8173 56.072C29.5539 56.0708 29.2906 56.0828 29.0283 56.1078L28.0957 59.1197L28.9099 59.0025L28.919 59.0001C29.0863 58.9677 29.2588 58.9749 29.4228 59.0213C29.4676 59.0351 29.5101 59.0518 29.5505 59.0712C29.7076 59.1499 29.8193 59.2582 29.8504 59.2885L29.8574 59.2959L30.462 59.8524L31.5723 56.2669Z" fill="white"/>
<path opacity="0.5" d="M25.0518 56.3877C24.7544 56.2292 24.0985 55.9255 23.525 55.5633C22.3584 54.8286 21.7377 53.8584 20.8253 53.2876C20.0543 52.8061 18.9966 52.3562 18.0894 52.0131C17.0719 51.6275 15.9716 52.2131 15.6497 53.2523L12.383 63.8024C12.0577 64.8531 12.6515 65.9705 13.6809 66.3609C14.5815 66.7019 15.6238 67.1481 16.3862 67.6238C16.8084 67.8883 17.4109 68.3881 17.9463 68.8599C18.7654 69.5814 19.655 70.2157 20.603 70.7551L25.0518 56.3877Z" fill="white"/>
<path d="M15.5093 61.3205C15.56 61.2371 15.6266 61.1645 15.7054 61.1069C15.7841 61.0492 15.8734 61.0076 15.9683 60.9845C16.0631 60.9613 16.1615 60.9571 16.258 60.972C16.3544 60.9869 16.447 61.0207 16.5304 61.0714L20.0235 63.1903C20.1919 63.2926 20.3128 63.4577 20.3595 63.6492C20.4062 63.8407 20.375 64.0429 20.2726 64.2113C20.1702 64.3798 20.0052 64.5007 19.8137 64.5474C19.6222 64.5941 19.42 64.5629 19.2515 64.4605L15.7585 62.3416C15.6751 62.2909 15.6025 62.2243 15.5448 62.1456C15.4871 62.0668 15.4455 61.9775 15.4224 61.8827C15.3993 61.7879 15.395 61.6894 15.41 61.593C15.4249 61.4965 15.4586 61.4039 15.5093 61.3205ZM17.7018 57.2849C17.6183 57.2326 17.5253 57.1974 17.4281 57.1814C17.3309 57.1653 17.2315 57.1687 17.1357 57.1915C17.0398 57.2142 16.9495 57.2557 16.8698 57.3137C16.7901 57.3716 16.7228 57.4448 16.6717 57.529C16.6206 57.6133 16.5868 57.7068 16.5721 57.8042C16.5575 57.9016 16.5624 58.001 16.5865 58.0965C16.6106 58.192 16.6535 58.2817 16.7126 58.3605C16.7717 58.4393 16.8459 58.5056 16.9308 58.5555L20.4239 60.6743C20.5922 60.7732 20.7927 60.8018 20.982 60.754C21.1713 60.7062 21.3342 60.5859 21.4354 60.419C21.5367 60.2521 21.5682 60.0521 21.5232 59.8621C21.4782 59.6721 21.3603 59.5075 21.1949 59.4038L17.7018 57.2849Z" fill="white"/>
</g>
</g>
<rect x="7.8144" y="44.4348" width="39.7884" height="26.4142" rx="2.50767" transform="rotate(16.7357 7.8144 44.4348)" stroke="url(#paint3_linear_4706_10220)" stroke-width="0.334357"/>
</g>
</g>
<rect x="14.2821" y="17.9095" width="61.9665" height="41.1374" rx="3.90545" transform="rotate(-5 14.2821 17.9095)" fill="url(#paint4_linear_4706_10220)"/>
<rect x="14.2821" y="17.9095" width="61.9665" height="41.1374" rx="3.90545" transform="rotate(-5 14.2821 17.9095)" stroke="url(#paint5_linear_4706_10220)" stroke-width="0.520727"/>
<path fill-rule="evenodd" clip-rule="evenodd" d="M48.9603 25.4307L49.3529 29.4878C49.3672 29.6351 49.3876 29.8461 49.4316 30.024C49.4737 30.2074 49.5565 30.379 49.6739 30.526C49.7913 30.673 49.9404 30.7917 50.1099 30.8733C50.2751 30.9465 50.454 30.9839 50.6346 30.9831C50.8153 30.9822 50.9938 30.9431 51.1583 30.8683C51.3257 30.7985 51.5054 30.69 51.6395 30.6087L53.0627 29.7557L54.6229 30.32C54.77 30.3728 54.9674 30.4461 55.1451 30.4838C55.321 30.5255 55.5037 30.5294 55.6812 30.4954C55.8587 30.4614 56.0269 30.3901 56.1749 30.2864C56.3254 30.1737 56.4487 30.0286 56.5355 29.8618C56.6223 29.695 56.6705 29.5109 56.6765 29.3229C56.6869 29.1397 56.6664 28.9287 56.6522 28.7814L56.0735 22.8013C56.2232 22.7797 56.3695 22.7598 56.5124 22.7415C57.9302 22.5534 59.166 23.6126 59.3038 25.0366L60.7435 39.9138C60.8863 41.3895 59.7992 42.6977 58.3364 42.933C57.0568 43.1372 55.5618 43.4413 54.4276 43.8605C53.0284 44.379 51.9237 45.5334 50.1356 46.1994C49.3262 46.5014 48.4115 46.7105 48.0178 46.837L46.0634 26.6407C46.478 26.4948 47.8714 26.1938 48.2374 25.9334C48.4686 25.7663 48.7096 25.5988 48.9603 25.4307ZM57.3012 35.7928C57.3453 35.9166 57.3645 36.0479 57.3578 36.1792C57.3511 36.3104 57.3186 36.439 57.2622 36.5577C57.2057 36.6764 57.1265 36.7828 57.0289 36.8708C56.9313 36.9588 56.8173 37.0267 56.6935 37.0706L51.5133 38.9115C51.2633 39.0003 50.9882 38.9862 50.7486 38.8723C50.5089 38.7583 50.3244 38.5538 50.2355 38.3037C50.1467 38.0537 50.1608 37.7786 50.2748 37.539C50.3887 37.2993 50.5932 37.1148 50.8433 37.0259L56.0234 35.1851C56.1472 35.141 56.2785 35.1218 56.4097 35.1285C56.541 35.1352 56.6696 35.1677 56.7883 35.2241C56.9069 35.2806 57.0133 35.3598 57.1013 35.4574C57.1893 35.555 57.2573 35.669 57.3012 35.7928Z" fill="white"/>
<path d="M54.0982 23.1535C53.2848 23.33 52.4889 23.5504 51.8189 23.8242C51.4913 23.9597 51.1707 24.1114 50.8582 24.2789L51.2668 28.5018L52.2165 27.933L52.2265 27.9253C52.4172 27.7981 52.6351 27.7174 52.8627 27.6896C52.9255 27.6836 52.987 27.6821 53.0471 27.6852C53.2831 27.7012 53.478 27.7774 53.5324 27.799L53.5449 27.8045L54.5847 28.1807L54.0982 23.1535Z" fill="white"/>
<path opacity="0.5" d="M46.0685 26.6941C45.6171 26.652 44.6451 26.6161 43.745 26.4648C41.9151 26.1596 40.6403 25.2783 39.2111 25.0442C38.0039 24.8476 36.4572 24.8392 35.1529 24.8851C33.6896 24.9356 32.6285 26.2345 32.7695 27.6917L34.2009 42.4839C34.3435 43.957 35.6614 45.0351 37.1421 44.9842C38.4371 44.9393 39.9627 44.9511 41.1562 45.145C41.8178 45.2538 42.8254 45.5608 43.7352 45.868C45.1269 46.3374 46.5608 46.6622 48.0179 46.8386L46.0685 26.6941Z" fill="white"/>
<path d="M36.7903 37.7777C36.8099 37.6478 36.8548 37.5231 36.9225 37.4106C36.9903 37.298 37.0795 37.2 37.1852 37.122C37.2908 37.0439 37.4108 36.9875 37.5383 36.9559C37.6657 36.9242 37.7982 36.918 37.928 36.9375L43.365 37.751C43.6273 37.7904 43.8631 37.9324 44.0207 38.1458C44.1783 38.3592 44.2446 38.6264 44.2052 38.8887C44.1657 39.1509 44.0237 39.3868 43.8103 39.5444C43.597 39.7019 43.3297 39.7683 43.0675 39.7288L37.6305 38.9154C37.5006 38.8959 37.3759 38.8509 37.2634 38.7832C37.1509 38.7154 37.0528 38.6262 36.9748 38.5206C36.8968 38.4149 36.8403 38.2949 36.8087 38.1675C36.777 38.04 36.7708 37.9076 36.7903 37.7777ZM37.413 31.6291C37.2822 31.6076 37.1485 31.6123 37.0195 31.6429C36.8905 31.6735 36.7689 31.7294 36.6618 31.8075C36.5546 31.8855 36.4641 31.984 36.3954 32.0974C36.3266 32.2107 36.2811 32.3366 36.2615 32.4677C36.2419 32.5988 36.2485 32.7325 36.281 32.861C36.3135 32.9895 36.3712 33.1102 36.4508 33.2162C36.5304 33.3222 36.6302 33.4114 36.7446 33.4784C36.8589 33.5455 36.9854 33.5891 37.1168 33.6069L42.5538 34.4203C42.8141 34.4554 43.0778 34.3867 43.2878 34.2289C43.4979 34.0712 43.6375 33.8372 43.6764 33.5774C43.7153 33.3176 43.6504 33.0529 43.4958 32.8406C43.3412 32.6282 43.1092 32.4852 42.85 32.4426L37.413 31.6291Z" fill="white"/>
<defs>
<linearGradient id="paint0_linear_4706_10220" x1="36.9835" y1="-6.83398" x2="36.9835" y2="16.5039" gradientUnits="userSpaceOnUse">
<stop stop-color="#3397FF"/>
<stop offset="1" stop-color="#007DFF"/>
</linearGradient>
<linearGradient id="paint1_linear_4706_10220" x1="36.9835" y1="-6.83398" x2="36.9835" y2="16.5039" gradientUnits="userSpaceOnUse">
<stop stop-color="#B0D7FF"/>
<stop offset="0.535" stop-color="#3397FF"/>
<stop offset="1" stop-color="#0072E8"/>
</linearGradient>
<linearGradient id="paint2_linear_4706_10220" x1="27.7638" y1="44.2266" x2="27.7638" y2="70.9751" gradientUnits="userSpaceOnUse">
<stop stop-color="#3397FF"/>
<stop offset="1" stop-color="#007DFF"/>
</linearGradient>
<linearGradient id="paint3_linear_4706_10220" x1="27.7638" y1="44.2266" x2="27.7638" y2="70.9751" gradientUnits="userSpaceOnUse">
<stop stop-color="#B0D7FF"/>
<stop offset="0.535" stop-color="#3397FF"/>
<stop offset="1" stop-color="#0072E8"/>
</linearGradient>
<linearGradient id="paint4_linear_4706_10220" x1="45.2436" y1="17.6729" x2="45.2436" y2="59.331" gradientUnits="userSpaceOnUse">
<stop stop-color="#3397FF"/>
<stop offset="1" stop-color="#007DFF"/>
</linearGradient>
<linearGradient id="paint5_linear_4706_10220" x1="45.2436" y1="17.6729" x2="45.2436" y2="59.331" gradientUnits="userSpaceOnUse">
<stop stop-color="#B0D7FF"/>
<stop offset="0.535" stop-color="#3397FF"/>
<stop offset="1" stop-color="#0072E8"/>
</linearGradient>
<clipPath id="clip0_4706_10220">
<rect width="56" height="15" fill="white" transform="translate(10 0.226562)"/>
</clipPath>
<clipPath id="clip1_4706_10220">
<rect x="18" y="-6.83398" width="37.967" height="23.3379" rx="2.53113" transform="rotate(-18.3289 18 -6.83398)" fill="white"/>
</clipPath>
<clipPath id="clip2_4706_10220">
<rect width="22.2262" height="22.2262" fill="white" transform="translate(25.9377 -9.33447) rotate(-16.0489)"/>
</clipPath>
<clipPath id="clip3_4706_10220">
<path d="M0 40.2266H59V70.2266H8C3.58172 70.2266 0 66.6448 0 62.2266V40.2266Z" fill="white"/>
</clipPath>
<clipPath id="clip4_4706_10220">
<rect x="7.70244" y="44.2266" width="40.1228" height="26.7485" rx="2.67485" transform="rotate(16.7357 7.70244 44.2266)" fill="white"/>
</clipPath>
<clipPath id="clip5_4706_10220">
<rect width="23.781" height="23.781" fill="white" transform="translate(15.2215 47.9355) rotate(17.2047)"/>
</clipPath>
</defs>
</svg>
