<svg width="80" height="71" viewBox="0 0 80 71" fill="none" xmlns="http://www.w3.org/2000/svg">
<rect y="0.226562" width="70" height="70" rx="8" fill="#D5C8FF"/>
<g clip-path="url(#clip0_4446_15994)">
<g opacity="0.6">
<g clip-path="url(#clip1_4446_15994)">
<rect x="18" y="-6.83392" width="37.967" height="23.3379" rx="2.53113" transform="rotate(-18.3289 18 -6.83392)" fill="url(#paint0_linear_4446_15994)"/>
<path d="M39.7318 -6.23551C39.6737 -6.41543 39.6894 -6.61108 39.7755 -6.77941C39.8617 -6.94773 40.0111 -7.07495 40.191 -7.13308L48.3319 -9.76304C48.5118 -9.82117 48.7075 -9.80544 48.8758 -9.71931C49.0441 -9.63319 49.1714 -9.48372 49.2295 -9.3038C49.2876 -9.12387 49.2719 -8.92823 49.1858 -8.7599C49.0996 -8.59158 48.9502 -8.46436 48.7702 -8.40623L40.6294 -5.77627C40.4494 -5.71814 40.2538 -5.73387 40.0855 -5.82C39.9171 -5.90612 39.7899 -6.05559 39.7318 -6.23551ZM49.6469 -5.69261L41.506 -3.06265C41.3261 -3.00452 41.1766 -2.8773 41.0905 -2.70897C41.0044 -2.54065 40.9887 -2.345 41.0468 -2.16508C41.1049 -1.98515 41.2321 -1.83569 41.4005 -1.74956C41.5688 -1.66344 41.7644 -1.64771 41.9443 -1.70583L50.0852 -4.33579C50.2651 -4.39392 50.4146 -4.52114 50.5007 -4.68947C50.5869 -4.85779 50.6026 -5.05344 50.5445 -5.23336C50.4863 -5.41329 50.3591 -5.56275 50.1908 -5.64888C50.0225 -5.735 49.8268 -5.75073 49.6469 -5.69261ZM50.9619 -1.62217L44.8562 0.350299C44.6763 0.408425 44.5268 0.535644 44.4407 0.703971C44.3546 0.872298 44.3389 1.06794 44.397 1.24787C44.4551 1.42779 44.5823 1.57726 44.7506 1.66338C44.919 1.74951 45.1146 1.76524 45.2945 1.70711L51.4002 -0.26536C51.5801 -0.323486 51.7296 -0.450705 51.8157 -0.619033C51.9018 -0.78736 51.9176 -0.983005 51.8594 -1.16293C51.8013 -1.34285 51.6741 -1.49232 51.5058 -1.57844C51.3374 -1.66457 51.1418 -1.6803 50.9619 -1.62217ZM43.4025 2.88025C43.4526 2.9594 43.4865 3.04762 43.5025 3.1399C43.5184 3.23217 43.5161 3.32669 43.4955 3.41804C43.4749 3.5094 43.4365 3.5958 43.3825 3.67232C43.3286 3.74884 43.26 3.81398 43.1809 3.86401C43.1304 3.89678 43.0758 3.92262 43.0184 3.94085C42.868 3.98953 42.7056 3.98682 42.5569 3.93315C42.4082 3.87948 42.2815 3.77789 42.1968 3.64436C41.0186 1.78299 38.4734 0.913908 36.2762 1.62372C34.079 2.33354 32.523 4.52661 32.6567 6.72635C32.6681 6.91518 32.6039 7.10078 32.4784 7.24231C32.3529 7.38385 32.1763 7.46973 31.9875 7.48106C31.7986 7.49238 31.613 7.42823 31.4715 7.30272C31.33 7.1772 31.2441 7.00061 31.2328 6.81177C31.112 4.81761 32.0084 2.88164 33.5184 1.57813C32.6776 1.27705 31.9521 0.720342 31.4437 -0.0139182C30.9352 -0.748179 30.6694 -1.62316 30.6834 -2.51616C30.6974 -3.40915 30.9906 -4.27536 31.5218 -4.99331C32.053 -5.71126 32.7956 -6.24493 33.6455 -6.51948C34.4953 -6.79404 35.4098 -6.79569 36.2606 -6.52423C37.1115 -6.25276 37.856 -5.72179 38.3898 -5.00577C38.9237 -4.28976 39.22 -3.42461 39.2372 -2.53168C39.2545 -1.63874 38.9918 -0.762797 38.486 -0.0266964C40.4741 0.14675 42.3337 1.19237 43.4025 2.88025ZM35.8387 0.266638C36.3754 0.0932518 36.8486 -0.235392 37.1986 -0.677733C37.5485 -1.12008 37.7594 -1.65625 37.8046 -2.21845C37.8498 -2.78065 37.7273 -3.34363 37.4525 -3.8362C37.1777 -4.32876 36.7631 -4.72879 36.261 -4.9857C35.7589 -5.2426 35.1919 -5.34484 34.6316 -5.27949C34.0714 -5.21415 33.5432 -4.98414 33.1137 -4.61857C32.6842 -4.25299 32.3727 -3.76826 32.2187 -3.22568C32.0647 -2.6831 32.075 -2.10704 32.2484 -1.57033C32.4809 -0.850634 32.9898 -0.252775 33.6631 0.091723C34.3364 0.436222 35.119 0.499141 35.8387 0.266638Z" fill="white"/>
</g>
<rect x="18.1999" y="-6.7335" width="37.6506" height="23.0215" rx="2.37294" transform="rotate(-18.3289 18.1999 -6.7335)" stroke="url(#paint1_linear_4446_15994)" stroke-width="0.316392"/>
</g>
</g>
<g clip-path="url(#clip2_4446_15994)">
<g opacity="0.4">
<g clip-path="url(#clip3_4446_15994)">
<rect x="7.70244" y="44.2266" width="40.1228" height="26.7485" rx="2.67485" transform="rotate(16.7357 7.70244 44.2266)" fill="url(#paint2_linear_4446_15994)"/>
<path d="M25.264 59.624C25.3093 59.4681 25.4147 59.3365 25.557 59.2582C25.6993 59.1799 25.8669 59.1614 26.0229 59.2067L33.0804 61.2564C33.2364 61.3017 33.368 61.4071 33.4463 61.5495C33.5245 61.6918 33.543 61.8594 33.4977 62.0153C33.4524 62.1713 33.347 62.3029 33.2047 62.3812C33.0624 62.4594 32.8948 62.478 32.7388 62.4327L25.6813 60.383C25.5253 60.3377 25.3937 60.2323 25.3155 60.0899C25.2372 59.9476 25.2187 59.78 25.264 59.624ZM32.0556 64.7852L24.9981 62.7355C24.8421 62.6902 24.6745 62.7087 24.5322 62.787C24.3898 62.8652 24.2844 62.9968 24.2391 63.1528C24.1938 63.3088 24.2123 63.4764 24.2906 63.6187C24.3689 63.761 24.5005 63.8664 24.6565 63.9117L31.714 65.9614C31.8699 66.0067 32.0375 65.9882 32.1799 65.9099C32.3222 65.8317 32.4276 65.7001 32.4729 65.5441C32.5182 65.3881 32.4997 65.2205 32.4214 65.0782C32.3431 64.9359 32.2116 64.8305 32.0556 64.7852ZM31.0307 68.3139L25.7376 66.7767C25.5816 66.7314 25.414 66.7499 25.2717 66.8281C25.1294 66.9064 25.024 67.038 24.9787 67.194C24.9334 67.35 24.9519 67.5175 25.0301 67.6599C25.1084 67.8022 25.24 67.9076 25.396 67.9529L30.6891 69.4902C30.8451 69.5355 31.0127 69.517 31.155 69.4387C31.2973 69.3604 31.4027 69.2288 31.448 69.0729C31.4933 68.9169 31.4748 68.7493 31.3966 68.607C31.3183 68.4646 31.1867 68.3592 31.0307 68.3139ZM23.4851 67.8762C23.4826 67.9566 23.4643 68.0358 23.4312 68.1091C23.3981 68.1824 23.3509 68.2485 23.2923 68.3036C23.2336 68.3586 23.1647 68.4016 23.0895 68.4301C23.0142 68.4585 22.9341 68.4718 22.8537 68.4693C22.802 68.4683 22.7507 68.4604 22.7011 68.4457C22.5707 68.4079 22.4565 68.3278 22.3765 68.218C22.2966 68.1082 22.2554 67.9749 22.2595 67.8391C22.3178 65.9477 20.9258 64.1037 19.021 63.5505C17.1162 62.9973 14.9532 63.808 13.989 65.4372C13.9061 65.5769 13.7711 65.6781 13.6136 65.7183C13.4562 65.7585 13.2892 65.7346 13.1494 65.6517C13.0096 65.5688 12.9085 65.4338 12.8683 65.2764C12.828 65.1189 12.852 64.9519 12.9349 64.8122C13.8094 63.3355 15.3793 62.39 17.0812 62.19C16.6281 61.5709 16.3801 60.8255 16.372 60.0583C16.364 59.2912 16.5963 58.5407 17.0363 57.9122C17.4763 57.2838 18.102 56.8088 18.8256 56.5539C19.5492 56.299 20.3345 56.277 21.0713 56.491C21.808 56.7049 22.4593 57.1442 22.9338 57.747C23.4083 58.3499 23.6823 59.0861 23.7172 59.8525C23.7521 60.619 23.5462 61.3771 23.1285 62.0206C22.7107 62.6641 22.102 63.1607 21.3878 63.4407C22.7184 64.5215 23.5377 66.1609 23.4851 67.8762ZM19.3633 62.3745C19.8286 62.5096 20.3235 62.5037 20.7854 62.3576C21.2474 62.2114 21.6556 61.9316 21.9585 61.5534C22.2614 61.1753 22.4454 60.7158 22.4871 60.2331C22.5289 59.7504 22.4266 59.2662 22.1931 58.8416C21.9597 58.4171 21.6056 58.0713 21.1756 57.848C20.7456 57.6246 20.2591 57.5339 19.7775 57.5871C19.2959 57.6403 18.841 57.8351 18.4701 58.1469C18.0992 58.4587 17.8292 58.8734 17.694 59.3387C17.5128 59.9627 17.5869 60.633 17.9 61.2023C18.213 61.7716 18.7394 62.1933 19.3633 62.3745Z" fill="white"/>
</g>
<rect x="7.8144" y="44.4348" width="39.7884" height="26.4142" rx="2.50767" transform="rotate(16.7357 7.8144 44.4348)" stroke="url(#paint3_linear_4446_15994)" stroke-width="0.334357"/>
</g>
</g>
<rect x="14.2821" y="17.9095" width="61.9665" height="41.1374" rx="3.90545" transform="rotate(-5 14.2821 17.9095)" fill="url(#paint4_linear_4446_15994)"/>
<rect x="14.2821" y="17.9095" width="61.9665" height="41.1374" rx="3.90545" transform="rotate(-5 14.2821 17.9095)" stroke="url(#paint5_linear_4446_15994)" stroke-width="0.520727"/>
<path d="M48.3291 29.7137C48.3049 29.4572 48.3837 29.2016 48.5481 29.0031C48.7124 28.8046 48.9489 28.6796 49.2054 28.6555L60.8134 27.564C61.0699 27.5399 61.3256 27.6187 61.524 27.7831C61.7225 27.9474 61.8475 28.1839 61.8717 28.4404C61.8958 28.697 61.817 28.9526 61.6527 29.1511C61.4883 29.3495 61.2518 29.4746 60.9953 29.4987L49.3873 30.5901C49.1308 30.6142 48.8752 30.5355 48.6767 30.3711C48.4782 30.2068 48.3532 29.9703 48.3291 29.7137ZM61.3591 33.368L49.7511 34.4594C49.4946 34.4836 49.2581 34.6086 49.0938 34.8071C48.9294 35.0055 48.8506 35.2612 48.8748 35.5177C48.8989 35.7743 49.0239 36.0107 49.2224 36.1751C49.4209 36.3394 49.6765 36.4182 49.933 36.3941L61.541 35.3027C61.7975 35.2786 62.034 35.1535 62.1984 34.955C62.3627 34.7566 62.4415 34.5009 62.4174 34.2444C62.3933 33.9878 62.2682 33.7514 62.0697 33.587C61.8713 33.4227 61.6156 33.3439 61.3591 33.368ZM61.9048 39.172L53.1988 39.9906C52.9423 40.0147 52.7058 40.1397 52.5415 40.3382C52.3771 40.5367 52.2983 40.7923 52.3225 41.0488C52.3466 41.3054 52.4716 41.5419 52.6701 41.7062C52.8686 41.8706 53.1242 41.9493 53.3807 41.9252L62.0867 41.1067C62.3433 41.0825 62.5797 40.9575 62.7441 40.759C62.9084 40.5605 62.9872 40.3049 62.9631 40.0484C62.939 39.7918 62.8139 39.5554 62.6155 39.391C62.417 39.2267 62.1614 39.1479 61.9048 39.172ZM50.5167 42.9264C50.5599 43.0465 50.579 43.1739 50.573 43.3014C50.5669 43.4289 50.5358 43.5539 50.4814 43.6694C50.427 43.7848 50.3504 43.8884 50.256 43.9742C50.1615 44.0601 50.0511 44.1265 49.931 44.1696C49.8542 44.1983 49.7738 44.2165 49.6921 44.2238C49.4776 44.2441 49.2624 44.1925 49.0804 44.0771C48.8984 43.9617 48.76 43.7891 48.6868 43.5864C47.6698 40.7617 44.5407 38.8529 41.4078 39.1474C38.2748 39.442 35.5563 41.8994 35.0837 44.8654C35.043 45.12 34.9027 45.3479 34.6939 45.4991C34.4851 45.6503 34.2247 45.7123 33.9702 45.6715C33.7156 45.6308 33.4877 45.4905 33.3365 45.2817C33.1853 45.0729 33.1233 44.8125 33.1641 44.558C33.5932 41.8693 35.3582 39.5589 37.7525 38.2713C36.7229 37.6221 35.9223 36.6669 35.4631 35.5398C35.0038 34.4126 34.9089 33.1699 35.1916 31.9861C35.4743 30.8022 36.1205 29.7365 37.0395 28.9385C37.9585 28.1405 39.1042 27.6501 40.316 27.5362C41.5278 27.4222 42.7449 27.6904 43.7966 28.3032C44.8482 28.9159 45.6817 29.8425 46.1801 30.9529C46.6785 32.0633 46.8169 33.3019 46.5758 34.4949C46.3347 35.6879 45.7262 36.7756 44.8357 37.6053C47.4292 38.4239 49.594 40.3649 50.5167 42.9264ZM41.2271 37.2127C41.9924 37.1407 42.7191 36.8434 43.3154 36.3584C43.9118 35.8735 44.3509 35.2225 44.5773 34.488C44.8037 33.7534 44.8071 32.9682 44.5873 32.2317C44.3674 31.4951 43.9341 30.8403 43.342 30.3501C42.75 29.8598 42.0259 29.5561 41.2613 29.4774C40.4967 29.3987 39.7259 29.5485 39.0464 29.9078C38.3669 30.2671 37.8093 30.8199 37.4439 31.4962C37.0786 32.1724 36.922 32.9419 36.994 33.7072C37.0904 34.7334 37.5906 35.6792 38.3845 36.3366C39.1784 36.994 40.2009 37.3092 41.2271 37.2127Z" fill="white"/>
<defs>
<linearGradient id="paint0_linear_4446_15994" x1="36.9835" y1="-6.83392" x2="36.9835" y2="16.5039" gradientUnits="userSpaceOnUse">
<stop stop-color="#9470FF"/>
<stop offset="1" stop-color="#6E45E8"/>
</linearGradient>
<linearGradient id="paint1_linear_4446_15994" x1="36.9835" y1="-6.83392" x2="36.9835" y2="16.5039" gradientUnits="userSpaceOnUse">
<stop stop-color="#D5C8FF"/>
<stop offset="0.535" stop-color="#9470FF"/>
<stop offset="1" stop-color="#5636B5"/>
</linearGradient>
<linearGradient id="paint2_linear_4446_15994" x1="27.7638" y1="44.2266" x2="27.7638" y2="70.9751" gradientUnits="userSpaceOnUse">
<stop stop-color="#9470FF"/>
<stop offset="1" stop-color="#6E45E8"/>
</linearGradient>
<linearGradient id="paint3_linear_4446_15994" x1="27.7638" y1="44.2266" x2="27.7638" y2="70.9751" gradientUnits="userSpaceOnUse">
<stop stop-color="#D5C8FF"/>
<stop offset="0.535" stop-color="#9470FF"/>
<stop offset="1" stop-color="#5636B5"/>
</linearGradient>
<linearGradient id="paint4_linear_4446_15994" x1="45.2436" y1="17.6729" x2="45.2436" y2="59.331" gradientUnits="userSpaceOnUse">
<stop stop-color="#9470FF"/>
<stop offset="1" stop-color="#6E45E8"/>
</linearGradient>
<linearGradient id="paint5_linear_4446_15994" x1="45.2436" y1="17.6729" x2="45.2436" y2="59.331" gradientUnits="userSpaceOnUse">
<stop stop-color="#D5C8FF"/>
<stop offset="0.535" stop-color="#9470FF"/>
<stop offset="1" stop-color="#5636B5"/>
</linearGradient>
<clipPath id="clip0_4446_15994">
<rect width="56" height="15" fill="white" transform="translate(10 0.226562)"/>
</clipPath>
<clipPath id="clip1_4446_15994">
<rect x="18" y="-6.83392" width="37.967" height="23.3379" rx="2.53113" transform="rotate(-18.3289 18 -6.83392)" fill="white"/>
</clipPath>
<clipPath id="clip2_4446_15994">
<path d="M0 40.2266H59V70.2266H8C3.58172 70.2266 0 66.6448 0 62.2266V40.2266Z" fill="white"/>
</clipPath>
<clipPath id="clip3_4446_15994">
<rect x="7.70244" y="44.2266" width="40.1228" height="26.7485" rx="2.67485" transform="rotate(16.7357 7.70244 44.2266)" fill="white"/>
</clipPath>
</defs>
</svg>
