<!-- <svg width="24" height="24" viewBox="0 0 24 24" fill="none" xmlns="http://www.w3.org/2000/svg">
  <path d="M3 9L12 2L21 9V20C21 20.5304 20.7893 21.0391 20.4142 21.4142C20.0391 21.7893 19.5304 22 19 22H5C4.46957 22 3.96086 21.7893 3.58579 21.4142C3.21071 21.0391 3 20.5304 3 20V9Z" stroke="currentColor" stroke-width="2" stroke-linecap="round" stroke-linejoin="round"/>
  <path d="M9 22V12H15V22" stroke="currentColor" stroke-width="2" stroke-linecap="round" stroke-linejoin="round"/>
</svg> -->

<svg width="32" height="32" viewBox="0 0 32 32" fill="none" xmlns="http://www.w3.org/2000/svg">
<path fill-rule="evenodd" clip-rule="evenodd" d="M28.7093 15.448L27.6667 14.6133V28.3333H29.3333C29.5986 28.3333 29.8529 28.4387 30.0404 28.6262C30.228 28.8138 30.3333 29.0681 30.3333 29.3333C30.3333 29.5985 30.228 29.8529 30.0404 30.0404C29.8529 30.228 29.5986 30.3333 29.3333 30.3333H2.66667C2.40145 30.3333 2.1471 30.228 1.95956 30.0404C1.77202 29.8529 1.66667 29.5985 1.66667 29.3333C1.66667 29.0681 1.77202 28.8138 1.95956 28.6262C2.1471 28.4387 2.40145 28.3333 2.66667 28.3333H4.33333V14.6133L3.292 15.448C3.18939 15.53 3.07163 15.5911 2.94545 15.6276C2.81926 15.6641 2.68711 15.6754 2.55655 15.6609C2.42599 15.6463 2.29958 15.6062 2.18452 15.5428C2.06947 15.4794 1.96803 15.3939 1.886 15.2913C1.80397 15.1887 1.74295 15.071 1.70643 14.9448C1.6699 14.8186 1.65859 14.6864 1.67314 14.5559C1.68769 14.4253 1.72781 14.2989 1.79121 14.1839C1.85462 14.0688 1.94006 13.9674 2.04267 13.8853L12.876 5.21867C13.7626 4.50915 14.8644 4.12259 16 4.12259C17.1356 4.12259 18.2374 4.50915 19.124 5.21867L29.9573 13.8853C30.0617 13.9667 30.1489 14.0679 30.2139 14.1832C30.2788 14.2985 30.3203 14.4255 30.3358 14.5569C30.3513 14.6883 30.3405 14.8215 30.3042 14.9488C30.2679 15.076 30.2066 15.1948 30.124 15.2982C30.0415 15.4015 29.9392 15.4875 29.8231 15.5511C29.7071 15.6147 29.5796 15.6546 29.448 15.6685C29.3164 15.6825 29.1833 15.6702 29.0566 15.6323C28.9298 15.5944 28.8117 15.5318 28.7093 15.448ZM16 9C15.0275 9 14.0949 9.38631 13.4073 10.0739C12.7196 10.7616 12.3333 11.6942 12.3333 12.6667C12.3333 13.6391 12.7196 14.5718 13.4073 15.2594C14.0949 15.947 15.0275 16.3333 16 16.3333C16.9725 16.3333 17.9051 15.947 18.5927 15.2594C19.2804 14.5718 19.6667 13.6391 19.6667 12.6667C19.6667 11.6942 19.2804 10.7616 18.5927 10.0739C17.9051 9.38631 16.9725 9 16 9ZM18.328 17.7493C17.716 17.6667 16.952 17.6667 16.0653 17.6667H15.9347C15.048 17.6667 14.284 17.6667 13.672 17.7493C13.0173 17.8373 12.388 18.036 11.8787 18.5453C11.3693 19.0547 11.1707 19.684 11.0827 20.3387C11 20.9507 11 21.7147 11 22.6013V28.3333H21V22.436C21 21.62 20.9947 20.912 20.9173 20.3387C20.8293 19.684 20.6307 19.0547 20.1213 18.5453C19.612 18.036 18.984 17.8373 18.328 17.7493Z" fill="#414D60"/>
<g opacity="0.5">
<path d="M14.3333 12.6667C14.3333 12.2246 14.5089 11.8007 14.8215 11.4882C15.134 11.1756 15.558 11 16 11C16.442 11 16.8659 11.1756 17.1785 11.4882C17.4911 11.8007 17.6667 12.2246 17.6667 12.6667C17.6667 13.1087 17.4911 13.5326 17.1785 13.8452C16.8659 14.1577 16.442 14.3333 16 14.3333C15.558 14.3333 15.134 14.1577 14.8215 13.8452C14.5089 13.5326 14.3333 13.1087 14.3333 12.6667Z" fill="#414D60"/>
<path d="M14.3333 12.6667C14.3333 12.2246 14.5089 11.8007 14.8215 11.4882C15.134 11.1756 15.558 11 16 11C16.442 11 16.8659 11.1756 17.1785 11.4882C17.4911 11.8007 17.6667 12.2246 17.6667 12.6667C17.6667 13.1087 17.4911 13.5326 17.1785 13.8452C16.8659 14.1577 16.442 14.3333 16 14.3333C15.558 14.3333 15.134 14.1577 14.8215 13.8452C14.5089 13.5326 14.3333 13.1087 14.3333 12.6667Z" fill="#414D60"/>
</g>
<path opacity="0.5" d="M16.0667 17.6667C16.952 17.6667 17.716 17.6667 18.328 17.7493C18.984 17.8373 19.612 18.036 20.1213 18.5453C20.6307 19.0547 20.8293 19.6827 20.9173 20.3387C20.9947 20.912 21 21.6187 21 22.436V28.3333H11V22.6C11 21.7147 11 20.9507 11.0827 20.3387C11.1707 19.6827 11.3693 19.0547 11.8787 18.5453C12.388 18.036 13.0173 17.8373 13.672 17.7493C14.284 17.6667 15.048 17.6667 15.9347 17.6667H16.0667ZM21.3333 4H24.6667C24.8435 4 25.013 4.07024 25.1381 4.19526C25.2631 4.32029 25.3333 4.48986 25.3333 4.66667V10.1867L20.6667 6.45333V4.66667C20.6667 4.48986 20.7369 4.32029 20.8619 4.19526C20.987 4.07024 21.1565 4 21.3333 4Z" fill="#414D60"/>
</svg>
