<svg width="32" height="32" viewBox="0 0 32 32" fill="none" xmlns="http://www.w3.org/2000/svg">
<path opacity="0.5" d="M2.66667 15.9998C2.66667 9.7145 2.66667 6.57184 4.61867 4.6185C6.57333 2.6665 9.71467 2.6665 16 2.6665C22.2853 2.6665 25.428 2.6665 27.38 4.6185C29.3333 6.57317 29.3333 9.7145 29.3333 15.9998C29.3333 22.2852 29.3333 25.4278 27.38 27.3798C25.4293 29.3332 22.2853 29.3332 16 29.3332C9.71467 29.3332 6.572 29.3332 4.61867 27.3798C2.66667 25.4292 2.66667 22.2852 2.66667 15.9998Z" fill="#414D60"/>
<path d="M29.3333 6.6665C29.3333 7.72737 28.9119 8.74479 28.1618 9.49493C27.4116 10.2451 26.3942 10.6665 25.3333 10.6665C24.2725 10.6665 23.2551 10.2451 22.5049 9.49493C21.7548 8.74479 21.3333 7.72737 21.3333 6.6665C21.3333 5.60564 21.7548 4.58822 22.5049 3.83808C23.2551 3.08793 24.2725 2.6665 25.3333 2.6665C26.3942 2.6665 27.4116 3.08793 28.1618 3.83808C28.9119 4.58822 29.3333 5.60564 29.3333 6.6665ZM19.3333 14.3332C19.0681 14.3332 18.8138 14.2278 18.6262 14.0403C18.4387 13.8527 18.3333 13.5984 18.3333 13.3332C18.3333 13.068 18.4387 12.8136 18.6262 12.6261C18.8138 12.4385 19.0681 12.3332 19.3333 12.3332H22.6667C22.9319 12.3332 23.1862 12.4385 23.3738 12.6261C23.5613 12.8136 23.6667 13.068 23.6667 13.3332V16.6665C23.6667 16.9317 23.5613 17.1861 23.3738 17.3736C23.1862 17.5611 22.9319 17.6665 22.6667 17.6665C22.4014 17.6665 22.1471 17.5611 21.9596 17.3736C21.772 17.1861 21.6667 16.9317 21.6667 16.6665V15.7465L18.9827 18.4305C18.5451 18.8677 17.9519 19.1133 17.3333 19.1133C16.7148 19.1133 16.1215 18.8677 15.684 18.4305L13.5693 16.3158C13.5384 16.2848 13.5016 16.2602 13.4611 16.2434C13.4206 16.2266 13.3772 16.2179 13.3333 16.2179C13.2895 16.2179 13.2461 16.2266 13.2056 16.2434C13.1651 16.2602 13.1283 16.2848 13.0973 16.3158L10.04 19.3732C9.85043 19.5498 9.5997 19.646 9.34064 19.6414C9.08157 19.6368 8.83439 19.5319 8.65117 19.3487C8.46795 19.1654 8.363 18.9183 8.35843 18.6592C8.35386 18.4001 8.45003 18.1494 8.62667 17.9598L11.684 14.9025C12.1215 14.4653 12.7148 14.2197 13.3333 14.2197C13.9519 14.2197 14.5451 14.4653 14.9827 14.9025L17.0973 17.0172C17.1283 17.0482 17.1651 17.0728 17.2056 17.0896C17.2461 17.1065 17.2895 17.1151 17.3333 17.1151C17.3772 17.1151 17.4206 17.1065 17.4611 17.0896C17.5016 17.0728 17.5384 17.0482 17.5693 17.0172L20.252 14.3332H19.3333Z" fill="#414D60"/>
</svg>
