<svg width="44" height="45" viewBox="0 0 44 45" fill="none" xmlns="http://www.w3.org/2000/svg">
<rect y="0.226562" width="44" height="44" rx="8" fill="#F2EDFF"/>
<path opacity="0.5" d="M32.5 26.8909V19.8909C32.5 16.5916 32.5 14.9419 31.4745 13.9164C30.5785 13.0204 29.2042 12.9072 26.6667 12.8932H17.3333C14.7958 12.9072 13.4215 13.0204 12.5255 13.9164C11.5 14.9419 11.5 16.5916 11.5 19.8909V26.8909C11.5 30.1914 11.5 31.8411 12.5255 32.8666C13.5498 33.8909 15.2007 33.8909 18.5 33.8909H25.5C28.7993 33.8909 30.4502 33.8909 31.4745 32.8666C32.5 31.8399 32.5 30.1914 32.5 26.8909Z" fill="#794CFF"/>
<path d="M17.3333 12.3099C17.3333 11.8457 17.5177 11.4006 17.8459 11.0724C18.1741 10.7443 18.6192 10.5599 19.0833 10.5599H24.9167C25.3808 10.5599 25.8259 10.7443 26.1541 11.0724C26.4823 11.4006 26.6667 11.8457 26.6667 12.3099V13.4765C26.6667 13.9407 26.4823 14.3858 26.1541 14.714C25.8259 15.0422 25.3808 15.2265 24.9167 15.2265H19.0833C18.6192 15.2265 18.1741 15.0422 17.8459 14.714C17.5177 14.3858 17.3333 13.9407 17.3333 13.4765V12.3099Z" fill="#794CFF"/>
<path fill-rule="evenodd" clip-rule="evenodd" d="M15.2917 20.4766C15.2917 20.2445 15.3838 20.0219 15.5479 19.8578C15.712 19.6938 15.9346 19.6016 16.1667 19.6016H16.75C16.9821 19.6016 17.2046 19.6938 17.3687 19.8578C17.5328 20.0219 17.625 20.2445 17.625 20.4766C17.625 20.7086 17.5328 20.9312 17.3687 21.0953C17.2046 21.2594 16.9821 21.3516 16.75 21.3516H16.1667C15.9346 21.3516 15.712 21.2594 15.5479 21.0953C15.3838 20.9312 15.2917 20.7086 15.2917 20.4766ZM19.375 20.4766C19.375 20.2445 19.4672 20.0219 19.6313 19.8578C19.7954 19.6938 20.0179 19.6016 20.25 19.6016H27.8333C28.0654 19.6016 28.2879 19.6938 28.452 19.8578C28.6161 20.0219 28.7083 20.2445 28.7083 20.4766C28.7083 20.7086 28.6161 20.9312 28.452 21.0953C28.2879 21.2594 28.0654 21.3516 27.8333 21.3516H20.25C20.0179 21.3516 19.7954 21.2594 19.6313 21.0953C19.4672 20.9312 19.375 20.7086 19.375 20.4766ZM15.2917 24.5599C15.2917 24.3278 15.3838 24.1053 15.5479 23.9412C15.712 23.7771 15.9346 23.6849 16.1667 23.6849H16.75C16.9821 23.6849 17.2046 23.7771 17.3687 23.9412C17.5328 24.1053 17.625 24.3278 17.625 24.5599C17.625 24.792 17.5328 25.0145 17.3687 25.1786C17.2046 25.3427 16.9821 25.4349 16.75 25.4349H16.1667C15.9346 25.4349 15.712 25.3427 15.5479 25.1786C15.3838 25.0145 15.2917 24.792 15.2917 24.5599ZM19.375 24.5599C19.375 24.3278 19.4672 24.1053 19.6313 23.9412C19.7954 23.7771 20.0179 23.6849 20.25 23.6849H27.8333C28.0654 23.6849 28.2879 23.7771 28.452 23.9412C28.6161 24.1053 28.7083 24.3278 28.7083 24.5599C28.7083 24.792 28.6161 25.0145 28.452 25.1786C28.2879 25.3427 28.0654 25.4349 27.8333 25.4349H20.25C20.0179 25.4349 19.7954 25.3427 19.6313 25.1786C19.4672 25.0145 19.375 24.792 19.375 24.5599ZM15.2917 28.6432C15.2917 28.4112 15.3838 28.1886 15.5479 28.0245C15.712 27.8604 15.9346 27.7682 16.1667 27.7682H16.75C16.9821 27.7682 17.2046 27.8604 17.3687 28.0245C17.5328 28.1886 17.625 28.4112 17.625 28.6432C17.625 28.8753 17.5328 29.0979 17.3687 29.2619C17.2046 29.426 16.9821 29.5182 16.75 29.5182H16.1667C15.9346 29.5182 15.712 29.426 15.5479 29.2619C15.3838 29.0979 15.2917 28.8753 15.2917 28.6432ZM19.375 28.6432C19.375 28.4112 19.4672 28.1886 19.6313 28.0245C19.7954 27.8604 20.0179 27.7682 20.25 27.7682H27.8333C28.0654 27.7682 28.2879 27.8604 28.452 28.0245C28.6161 28.1886 28.7083 28.4112 28.7083 28.6432C28.7083 28.8753 28.6161 29.0979 28.452 29.2619C28.2879 29.426 28.0654 29.5182 27.8333 29.5182H20.25C20.0179 29.5182 19.7954 29.426 19.6313 29.2619C19.4672 29.0979 19.375 28.8753 19.375 28.6432Z" fill="#794CFF"/>
</svg>
