<svg width="32" height="32" viewBox="0 0 32 32" fill="none" xmlns="http://www.w3.org/2000/svg">
<path opacity="0.5" d="M16 29.3335C22.448 29.3335 27.6747 24.1549 27.6747 17.7669C27.6747 11.3802 22.448 6.2002 16 6.2002C9.552 6.2002 4.324 11.3789 4.324 17.7669C4.324 24.1535 9.55067 29.3335 16 29.3335Z" fill="#414D60"/>
<path d="M16 11.6626C16.536 11.6626 16.972 12.0946 16.972 12.6266V17.3679L19.9307 20.2986C20.0206 20.3878 20.0919 20.494 20.1406 20.6109C20.1893 20.7278 20.2144 20.8533 20.2144 20.9799C20.2144 21.1066 20.1893 21.232 20.1406 21.349C20.0919 21.4659 20.0206 21.572 19.9307 21.6613C19.7475 21.8424 19.5003 21.9439 19.2427 21.9439C18.9851 21.9439 18.7379 21.8424 18.5547 21.6613L15.3107 18.4479C15.2209 18.3589 15.1496 18.253 15.1009 18.1363C15.0521 18.0196 15.0269 17.8944 15.0267 17.7679V12.6266C15.0267 12.0933 15.4614 11.6626 16 11.6626Z" fill="#414D60"/>
<path fill-rule="evenodd" clip-rule="evenodd" d="M10.9866 3.11997C11.0541 3.22731 11.0996 3.34696 11.1205 3.47199C11.1415 3.59702 11.1375 3.72496 11.1087 3.84843C11.08 3.9719 11.027 4.08844 10.953 4.19135C10.8789 4.29425 10.7852 4.38147 10.6773 4.44797L5.48931 7.6613C5.27037 7.79699 5.00676 7.84089 4.75566 7.78348C4.50456 7.72607 4.28621 7.57198 4.14798 7.35463C4.08054 7.24729 4.03504 7.12764 4.01408 7.00261C3.99313 6.87758 3.99715 6.74964 4.02591 6.62617C4.05467 6.50271 4.1076 6.38616 4.18165 6.28325C4.25569 6.18035 4.34938 6.09313 4.45731 6.02663L9.64665 2.8133C9.86559 2.67761 10.1292 2.63372 10.3803 2.69112C10.6314 2.74853 10.8498 2.90262 10.988 3.11997M21.0133 3.11997C21.1515 2.90299 21.3696 2.74916 21.6204 2.69176C21.8712 2.63437 22.1345 2.67803 22.3533 2.8133L27.5426 6.02663C27.6506 6.09313 27.7443 6.18035 27.8183 6.28325C27.8924 6.38616 27.9453 6.50271 27.9741 6.62617C28.0028 6.74964 28.0068 6.87758 27.9859 7.00261C27.9649 7.12764 27.9194 7.24729 27.852 7.35463C27.7138 7.57198 27.4954 7.72607 27.2443 7.78348C26.9932 7.84089 26.7296 7.79699 26.5106 7.6613L21.3226 4.44797C21.2146 4.38158 21.1208 4.29444 21.0466 4.19158C20.9724 4.08873 20.9194 3.9722 20.8905 3.84873C20.8616 3.72525 20.8575 3.59727 20.8783 3.47219C20.8992 3.34711 20.9446 3.22739 21.012 3.11997" fill="#414D60"/>
</svg>
