<svg width="84" height="71" viewBox="0 0 84 71" fill="none" xmlns="http://www.w3.org/2000/svg">
<rect y="0.226562" width="70" height="70" rx="8" fill="#FCE7F3"/>
<g clip-path="url(#clip0_4706_11748)">
<g opacity="0.25">
<g clip-path="url(#clip1_4706_11748)">
<rect x="5.72546" y="48.3525" width="45.2943" height="27.1766" rx="1.81177" transform="rotate(-2.8858 5.72546 48.3525)" fill="url(#paint0_linear_4706_11748)"/>
<path opacity="0.5" d="M28.261 74.5593C34.0929 74.1912 38.5246 69.2091 38.16 63.4314C37.7954 57.655 32.7725 53.2683 26.9406 53.6363C21.1087 54.0043 16.6758 58.9866 17.0404 64.7642C17.405 70.5406 22.4279 74.9274 28.261 74.5593Z" fill="white"/>
<path d="M27.2524 58.5768C27.7372 58.5462 28.1562 58.912 28.1866 59.3932L28.4572 63.6815L31.3004 66.1633C31.3868 66.2388 31.4574 66.3308 31.5081 66.4337C31.5588 66.5367 31.5887 66.6487 31.5959 66.7633C31.6031 66.8779 31.5876 66.9927 31.5502 67.1013C31.5129 67.2098 31.4544 67.3099 31.3782 67.3957C31.2228 67.57 31.005 67.6759 30.7721 67.6906C30.5391 67.7053 30.3097 67.6276 30.1337 67.4743L27.0162 64.7531C26.9299 64.6777 26.8594 64.586 26.8086 64.4832C26.7579 64.3804 26.728 64.2687 26.7205 64.1543L26.4271 59.5042C26.3967 59.0218 26.7652 58.6075 27.2524 58.5768Z" fill="white"/>
<path fill-rule="evenodd" clip-rule="evenodd" d="M22.2305 51.1369C22.2976 51.2301 22.3456 51.3358 22.3717 51.4476C22.3978 51.5595 22.4015 51.6755 22.3825 51.7888C22.3635 51.9021 22.3223 52.0105 22.2612 52.1078C22.2001 52.2051 22.1204 52.2894 22.0265 52.3557L17.5177 55.5581C17.3274 55.6933 17.0915 55.748 16.8611 55.7105C16.6307 55.6729 16.4244 55.546 16.287 55.3573C16.2199 55.264 16.1719 55.1584 16.1458 55.0465C16.1197 54.9346 16.116 54.8187 16.135 54.7054C16.154 54.5921 16.1952 54.4836 16.2563 54.3863C16.3174 54.289 16.3971 54.2048 16.491 54.1385L21.001 50.936C21.1913 50.8008 21.4272 50.746 21.6576 50.7836C21.888 50.8212 22.0943 50.9481 22.2317 51.1368M31.2991 50.5646C31.4118 50.3605 31.6002 50.2089 31.8238 50.1427C32.0473 50.0764 32.288 50.1009 32.4936 50.2108L37.3705 52.8209C37.4719 52.8749 37.5616 52.9484 37.6345 53.0372C37.7073 53.1261 37.7618 53.2285 37.7949 53.3385C37.828 53.4485 37.8389 53.564 37.8271 53.6783C37.8153 53.7926 37.7809 53.9034 37.7261 54.0043C37.6135 54.2088 37.4248 54.3606 37.2009 54.4269C36.9771 54.4931 36.7362 54.4685 36.5304 54.3582L31.6547 51.7481C31.5532 51.6942 31.4634 51.6207 31.3904 51.5319C31.3175 51.4431 31.2628 51.3408 31.2297 51.2307C31.1965 51.1207 31.1854 51.0052 31.1972 50.8909C31.2089 50.7766 31.2431 50.6657 31.2979 50.5647" fill="white"/>
</g>
<rect x="5.84426" y="48.4599" width="45.0678" height="26.9501" rx="1.69854" transform="rotate(-2.8858 5.84426 48.4599)" stroke="url(#paint1_linear_4706_11748)" stroke-width="0.226471"/>
</g>
</g>
<rect x="11.1708" y="14.1811" width="69.65" height="41.65" rx="2.625" transform="rotate(-2.8858 11.1708 14.1811)" fill="url(#paint2_linear_4706_11748)"/>
<rect x="11.1708" y="14.1811" width="69.65" height="41.65" rx="2.625" transform="rotate(-2.8858 11.1708 14.1811)" stroke="url(#paint3_linear_4706_11748)" stroke-width="0.35"/>
<path opacity="0.5" d="M48.9962 46.9989C55.8166 46.5305 60.9688 40.6731 60.5048 33.9162C60.0408 27.1607 54.136 22.0613 47.3157 22.5297C40.4953 22.9981 35.3417 28.8556 35.8057 35.6125C36.2697 42.368 42.1745 47.4674 48.9962 46.9989Z" fill="white"/>
<path d="M47.7126 28.3072C48.2796 28.2683 48.7722 28.6936 48.8108 29.2563L49.1552 34.2714L52.4977 37.1564C52.5992 37.2442 52.6824 37.3513 52.7424 37.4715C52.8024 37.5916 52.838 37.7225 52.8472 37.8564C52.8564 37.9904 52.839 38.1249 52.796 38.2521C52.753 38.3794 52.6853 38.4968 52.5966 38.5977C52.416 38.8026 52.1619 38.928 51.8895 38.9467C51.617 38.9654 51.3481 38.8759 51.1412 38.6977L47.4764 35.5345C47.375 35.4468 47.2919 35.3399 47.2318 35.22C47.1718 35.1001 47.136 34.9696 47.1266 34.8358L46.7531 29.3976C46.7144 28.8335 47.1429 28.3464 47.7126 28.3072Z" fill="white"/>
<path fill-rule="evenodd" clip-rule="evenodd" d="M41.7892 19.6357C41.8683 19.7444 41.9251 19.8676 41.9564 19.9984C41.9876 20.1291 41.9927 20.2647 41.9712 20.3974C41.9498 20.5301 41.9022 20.6572 41.8314 20.7714C41.7605 20.8857 41.6678 20.9847 41.5584 21.0629L36.3043 24.8387C36.0826 24.9981 35.8069 25.0637 35.5372 25.0212C35.2674 24.9787 35.0252 24.8316 34.8632 24.6117C34.7841 24.5031 34.7273 24.3798 34.696 24.2491C34.6648 24.1184 34.6597 23.9828 34.6812 23.8501C34.7026 23.7174 34.7502 23.5903 34.821 23.476C34.8919 23.3618 34.9846 23.2628 35.094 23.1846L40.3495 19.4087C40.5712 19.2493 40.8469 19.1837 41.1167 19.2262C41.3864 19.2687 41.6286 19.4158 41.7906 19.6356M52.3948 18.9073C52.5253 18.6678 52.7448 18.4892 53.0059 18.4103C53.267 18.3314 53.5486 18.3584 53.7899 18.4856L59.5124 21.5075C59.6314 21.57 59.7368 21.6555 59.8226 21.7589C59.9084 21.8624 59.9728 21.9818 60.0122 22.1104C60.0516 22.2389 60.0652 22.3739 60.0521 22.5077C60.039 22.6414 59.9996 22.7713 59.936 22.8898C59.8056 23.1297 59.5859 23.3085 59.3244 23.3875C59.063 23.4665 58.781 23.4392 58.5395 23.3116L52.8185 20.2896C52.6994 20.2272 52.5938 20.1418 52.5079 20.0384C52.422 19.935 52.3574 19.8156 52.3179 19.6871C52.2783 19.5586 52.2647 19.4235 52.2776 19.2897C52.2906 19.1559 52.33 19.026 52.3934 18.9074" fill="white"/>
<g clip-path="url(#clip2_4706_11748)">
<g opacity="0.25">
<g clip-path="url(#clip3_4706_11748)">
<rect x="14.3086" y="-25.311" width="52.5" height="31.5" rx="2.1" transform="rotate(13.8879 14.3086 -25.311)" fill="url(#paint4_linear_4706_11748)"/>
<path opacity="0.5" d="M37.2611 8.55927C43.093 8.19124 47.5247 3.20906 47.1601 -2.56857C46.7956 -8.34499 41.7726 -12.7317 35.9407 -12.3637C30.1088 -11.9957 25.676 -7.01342 26.0406 -1.23578C26.4051 4.54064 31.428 8.92738 37.2611 8.55927Z" fill="white"/>
<path d="M36.2525 -7.42323C36.7373 -7.45382 37.1563 -7.08799 37.1867 -6.60682L37.4573 -2.31852L40.3005 0.163257C40.3869 0.238835 40.4575 0.330764 40.5082 0.433748C40.559 0.536731 40.5888 0.648732 40.596 0.763297C40.6032 0.877862 40.5877 0.992726 40.5504 1.10127C40.513 1.20981 40.4545 1.30988 40.3783 1.39572C40.223 1.56996 40.0052 1.67593 39.7722 1.69063C39.5392 1.70533 39.3098 1.62759 39.1338 1.47426L36.0163 -1.24688C35.93 -1.3223 35.8595 -1.41403 35.8088 -1.51679C35.758 -1.61956 35.7281 -1.73133 35.7207 -1.8457L35.4272 -6.49578C35.3968 -6.97816 35.7653 -7.39249 36.2525 -7.42323Z" fill="white"/>
</g>
<rect x="14.4045" y="-25.1521" width="52.2375" height="31.2375" rx="1.96875" transform="rotate(13.8879 14.4045 -25.1521)" stroke="url(#paint5_linear_4706_11748)" stroke-width="0.2625"/>
</g>
</g>
<defs>
<linearGradient id="paint0_linear_4706_11748" x1="28.3726" y1="48.3525" x2="28.3726" y2="75.5291" gradientUnits="userSpaceOnUse">
<stop stop-color="#DB2777"/>
<stop offset="1" stop-color="#F472B6"/>
</linearGradient>
<linearGradient id="paint1_linear_4706_11748" x1="28.3726" y1="48.3525" x2="28.3726" y2="75.5291" gradientUnits="userSpaceOnUse">
<stop stop-color="#F9A8D4"/>
<stop offset="1" stop-color="#FBCFE8"/>
</linearGradient>
<linearGradient id="paint2_linear_4706_11748" x1="45.9872" y1="14.0151" x2="45.9872" y2="56.0151" gradientUnits="userSpaceOnUse">
<stop stop-color="#DB2777"/>
<stop offset="1" stop-color="#F472B6"/>
</linearGradient>
<linearGradient id="paint3_linear_4706_11748" x1="45.9872" y1="14.0151" x2="45.9872" y2="56.0151" gradientUnits="userSpaceOnUse">
<stop stop-color="#F9A8D4"/>
<stop offset="1" stop-color="#FBCFE8"/>
</linearGradient>
<linearGradient id="paint4_linear_4706_11748" x1="40.5586" y1="-25.311" x2="40.5586" y2="6.18896" gradientUnits="userSpaceOnUse">
<stop stop-color="#DB2777"/>
<stop offset="1" stop-color="#F472B6"/>
</linearGradient>
<linearGradient id="paint5_linear_4706_11748" x1="40.5586" y1="-25.311" x2="40.5586" y2="6.18896" gradientUnits="userSpaceOnUse">
<stop stop-color="#F9A8D4"/>
<stop offset="1" stop-color="#FBCFE8"/>
</linearGradient>
<clipPath id="clip0_4706_11748">
<path d="M4 36.5796H60.9414V63.3248C60.9414 67.1367 57.8513 70.2268 54.0394 70.2268H4V36.5796Z" fill="white"/>
</clipPath>
<clipPath id="clip1_4706_11748">
<rect x="5.72546" y="48.3525" width="45.2943" height="27.1766" rx="1.81177" transform="rotate(-2.8858 5.72546 48.3525)" fill="white"/>
</clipPath>
<clipPath id="clip2_4706_11748">
<rect width="58.8743" height="11.8259" fill="white" transform="translate(7 0.29834) rotate(-0.0699406)"/>
</clipPath>
<clipPath id="clip3_4706_11748">
<rect x="14.3086" y="-25.311" width="52.5" height="31.5" rx="2.1" transform="rotate(13.8879 14.3086 -25.311)" fill="white"/>
</clipPath>
</defs>
</svg>
