<svg width="32" height="33" viewBox="0 0 32 33" fill="none" xmlns="http://www.w3.org/2000/svg">
<path opacity="0.5" d="M16 29.5601C22.448 29.5601 27.6747 24.3814 27.6747 17.9934C27.6747 11.6068 22.448 6.42676 16 6.42676C9.55199 6.42676 4.32399 11.6054 4.32399 17.9934C4.32399 24.3801 9.55066 29.5601 16 29.5601Z" fill="#794CFF"/>
<path d="M16 11.8887C16.536 11.8887 16.972 12.3207 16.972 12.8527V17.594L19.9307 20.5247C20.0206 20.6139 20.0919 20.7201 20.1406 20.837C20.1893 20.9539 20.2144 21.0793 20.2144 21.206C20.2144 21.3327 20.1893 21.4581 20.1406 21.575C20.0919 21.692 20.0206 21.7981 19.9307 21.8873C19.7475 22.0684 19.5003 22.17 19.2427 22.17C18.9851 22.17 18.7379 22.0684 18.5547 21.8873L15.3107 18.674C15.2209 18.585 15.1496 18.479 15.1008 18.3623C15.0521 18.2456 15.0269 18.1205 15.0267 17.994V12.8527C15.0267 12.3193 15.4614 11.8887 16 11.8887Z" fill="#794CFF"/>
<path fill-rule="evenodd" clip-rule="evenodd" d="M10.9867 3.34653C11.0541 3.45388 11.0996 3.57352 11.1206 3.69855C11.1415 3.82358 11.1375 3.95152 11.1087 4.07499C11.08 4.19846 11.027 4.31501 10.953 4.41791C10.879 4.52081 10.7853 4.60803 10.6773 4.67453L5.48933 7.88786C5.27039 8.02355 5.00678 8.06745 4.75568 8.01004C4.50457 7.95263 4.28623 7.79854 4.148 7.5812C4.08056 7.47385 4.03505 7.35421 4.0141 7.22918C3.99315 7.10415 3.99717 6.9762 4.02593 6.85274C4.05469 6.72927 4.10762 6.61272 4.18166 6.50982C4.25571 6.40691 4.3494 6.3197 4.45733 6.2532L9.64667 3.03986C9.86561 2.90418 10.1292 2.86028 10.3803 2.91769C10.6314 2.9751 10.8498 3.12918 10.988 3.34653M21.0133 3.34653C21.1516 3.12955 21.3696 2.97572 21.6204 2.91833C21.8712 2.86093 22.1345 2.90459 22.3533 3.03986L27.5427 6.2532C27.6506 6.3197 27.7443 6.40691 27.8183 6.50982C27.8924 6.61272 27.9453 6.72927 27.9741 6.85274C28.0028 6.9762 28.0068 7.10415 27.9859 7.22918C27.9649 7.35421 27.9194 7.47385 27.852 7.5812C27.7138 7.79854 27.4954 7.95263 27.2443 8.01004C26.9932 8.06745 26.7296 8.02355 26.5107 7.88786L21.3227 4.67453C21.2146 4.60814 21.1208 4.521 21.0466 4.41815C20.9725 4.31529 20.9194 4.19876 20.8905 4.07529C20.8616 3.95181 20.8575 3.82384 20.8783 3.69875C20.8992 3.57367 20.9446 3.45396 21.012 3.34653" fill="#794CFF"/>
</svg>
